<svg width="180" height="66" viewBox="0 0 180 66" fill="none" xmlns="http://www.w3.org/2000/svg">
<path d="M51.2177 56.872C51.2177 58.36 50.9537 59.464 50.4257 60.184C49.8977 60.904 49.0577 61.6 47.9057 62.272C47.2337 62.656 46.3937 63.04 45.3857 63.424C44.3777 63.76 43.2737 64.048 42.0737 64.288C40.8737 64.576 39.6017 64.792 38.2577 64.936C36.9617 65.08 35.6657 65.152 34.3697 65.152C30.9137 65.152 27.6737 64.696 24.6497 63.784C21.6257 62.824 18.9857 61.408 16.7297 59.536C14.5217 57.616 12.7697 55.24 11.4737 52.408C10.1777 49.576 9.52969 46.288 9.52969 42.544C9.52969 38.608 10.2257 35.176 11.6177 32.248C13.0577 29.32 14.9297 26.896 17.2337 24.976C19.5857 23.008 22.2497 21.544 25.2257 20.584C28.2497 19.624 31.3457 19.144 34.5137 19.144C39.0737 19.144 42.6737 19.888 45.3137 21.376C48.0017 22.816 49.3457 24.712 49.3457 27.064C49.3457 28.312 49.0337 29.392 48.4097 30.304C47.7857 31.216 47.0657 31.936 46.2497 32.464C45.0497 31.744 43.5377 31.048 41.7137 30.376C39.9377 29.656 37.9217 29.296 35.6657 29.296C31.6337 29.296 28.4177 30.448 26.0177 32.752C23.6657 35.056 22.4897 38.248 22.4897 42.328C22.4897 44.536 22.8017 46.456 23.4257 48.088C24.0977 49.672 24.9857 50.992 26.0897 52.048C27.1937 53.056 28.4657 53.824 29.9057 54.352C31.3457 54.832 32.8817 55.072 34.5137 55.072C35.5697 55.072 36.5057 54.976 37.3217 54.784C38.1377 54.592 38.7617 54.376 39.1937 54.136V47.368H31.4897C31.2017 46.84 30.9137 46.144 30.6257 45.28C30.3857 44.416 30.2657 43.504 30.2657 42.544C30.2657 40.816 30.6497 39.568 31.4177 38.8C32.2337 38.032 33.2657 37.648 34.5137 37.648H46.6817C48.1217 37.648 49.2257 38.056 49.9937 38.872C50.8097 39.64 51.2177 40.744 51.2177 42.184V56.872ZM73.7288 56.224C74.5448 56.224 75.4328 56.152 76.3928 56.008C77.4008 55.816 78.1448 55.576 78.6248 55.288V49.528L73.4408 49.96C72.0968 50.056 70.9928 50.344 70.1288 50.824C69.2648 51.304 68.8328 52.024 68.8328 52.984C68.8328 53.944 69.1928 54.736 69.9128 55.36C70.6808 55.936 71.9528 56.224 73.7288 56.224ZM73.1528 27.928C75.7448 27.928 78.0968 28.192 80.2088 28.72C82.3688 29.248 84.1928 30.064 85.6808 31.168C87.2168 32.224 88.3928 33.592 89.2088 35.272C90.0248 36.904 90.4328 38.848 90.4328 41.104V57.232C90.4328 58.48 90.0728 59.512 89.3528 60.328C88.6808 61.096 87.8648 61.768 86.9048 62.344C83.7848 64.216 79.3928 65.152 73.7288 65.152C71.1848 65.152 68.8808 64.912 66.8168 64.432C64.8008 63.952 63.0488 63.232 61.5608 62.272C60.1208 61.312 58.9928 60.088 58.1768 58.6C57.4088 57.112 57.0248 55.384 57.0248 53.416C57.0248 50.104 58.0088 47.56 59.9768 45.784C61.9448 44.008 64.9928 42.904 69.1208 42.472L78.5528 41.464V40.96C78.5528 39.568 77.9288 38.584 76.6808 38.008C75.4808 37.384 73.7288 37.072 71.4248 37.072C69.6008 37.072 67.8248 37.264 66.0968 37.648C64.3688 38.032 62.8088 38.512 61.4168 39.088C60.7928 38.656 60.2648 38.008 59.8328 37.144C59.4008 36.232 59.1848 35.296 59.1848 34.336C59.1848 33.088 59.4728 32.104 60.0488 31.384C60.6728 30.616 61.6088 29.968 62.8568 29.44C64.2488 28.912 65.8808 28.528 67.7528 28.288C69.6728 28.048 71.4728 27.928 73.1528 27.928Z" fill="white"/>
<path d="M128.856 53.272C128.232 53.8 127.416 54.232 126.408 54.568C125.448 54.856 124.32 55 123.024 55C121.296 55 119.856 54.784 118.704 54.352C117.6 53.92 116.88 53.176 116.544 52.12C115.2 47.896 114.096 44.488 113.232 41.896C112.368 39.256 111.696 36.952 111.216 34.984H110.856C110.712 37.816 110.592 40.408 110.496 42.76C110.448 45.064 110.4 47.32 110.352 49.528C110.352 51.736 110.304 53.968 110.208 56.224C110.16 58.48 110.064 60.976 109.92 63.712C109.296 63.952 108.48 64.144 107.472 64.288C106.464 64.48 105.456 64.576 104.448 64.576C102.336 64.576 100.68 64.24 99.4798 63.568C98.3278 62.896 97.7518 61.672 97.7518 59.896L99.8398 23.176C100.224 22.552 101.064 21.88 102.36 21.16C103.656 20.44 105.48 20.08 107.832 20.08C110.376 20.08 112.368 20.488 113.808 21.304C115.248 22.072 116.304 23.344 116.976 25.12C117.408 26.272 117.864 27.592 118.344 29.08C118.872 30.568 119.376 32.104 119.856 33.688C120.384 35.272 120.888 36.856 121.368 38.44C121.848 39.976 122.28 41.368 122.664 42.616H123.024C124.176 38.584 125.328 34.696 126.48 30.952C127.632 27.16 128.688 23.992 129.648 21.448C130.368 21.064 131.28 20.752 132.384 20.512C133.536 20.224 134.808 20.08 136.2 20.08C138.552 20.08 140.472 20.44 141.96 21.16C143.448 21.832 144.312 22.816 144.552 24.112C144.744 25.072 144.936 26.56 145.128 28.576C145.368 30.544 145.608 32.776 145.848 35.272C146.088 37.768 146.328 40.408 146.568 43.192C146.808 45.976 147.024 48.664 147.216 51.256C147.456 53.8 147.648 56.152 147.792 58.312C147.936 60.424 148.032 62.056 148.08 63.208C147.264 63.688 146.4 64.024 145.488 64.216C144.624 64.456 143.496 64.576 142.104 64.576C140.28 64.576 138.744 64.264 137.496 63.64C136.248 63.016 135.576 61.792 135.48 59.968C135.192 54.736 135 50.032 134.904 45.856C134.856 41.68 134.76 38.176 134.616 35.344H134.256C133.776 37.216 133.08 39.568 132.168 42.4C131.256 45.232 130.152 48.856 128.856 53.272ZM168.498 63.712C167.97 63.856 167.13 64 165.978 64.144C164.874 64.288 163.77 64.36 162.666 64.36C161.562 64.36 160.578 64.264 159.714 64.072C158.898 63.928 158.202 63.64 157.626 63.208C157.05 62.776 156.618 62.176 156.33 61.408C156.042 60.64 155.898 59.632 155.898 58.384V20.368C156.426 20.272 157.266 20.152 158.418 20.008C159.57 19.816 160.674 19.72 161.73 19.72C162.834 19.72 163.794 19.816 164.61 20.008C165.474 20.152 166.194 20.44 166.77 20.872C167.346 21.304 167.778 21.904 168.066 22.672C168.354 23.44 168.498 24.448 168.498 25.696V63.712Z" fill="#5C4D48"/>
<path d="M163.848 9.20281C163.848 9.20281 157.231 8.88543 157.609 14.0024C157.995 19.1932 162.003 14.9583 165.839 17.3769C169.317 19.5754 172.111 10.2519 163.848 9.20281Z" fill="white"/>
<path d="M164.607 7.3123C164.607 7.3123 167.148 2.01419 163.514 1.95323C159.887 1.89447 162.006 10.4782 164.607 7.3123Z" fill="white"/>
<path d="M159.686 8.83034C159.686 8.83034 160.687 3.04606 157.179 3.97001C153.67 4.89396 158.05 12.5829 159.686 8.83034Z" fill="white"/>
<path d="M168.768 9.34092C168.768 9.34092 173.09 5.36778 169.749 3.96051C166.408 2.55324 165.19 11.3167 168.768 9.34092Z" fill="white"/>
<path d="M171.206 14.4798C171.206 14.4798 175.467 12.9807 173.389 10.7683C171.312 8.55582 168.031 14.7246 171.206 14.4798Z" fill="white"/>
</svg>
