<svg width="101" height="48" viewBox="0 0 101 48" fill="none" xmlns="http://www.w3.org/2000/svg">
<path d="M28.6078 35.04C28.6078 35.8667 28.4611 36.48 28.1678 36.88C27.8744 37.28 27.4078 37.6667 26.7678 38.04C26.3944 38.2533 25.9278 38.4667 25.3678 38.68C24.8078 38.8667 24.1944 39.0267 23.5278 39.16C22.8611 39.32 22.1544 39.44 21.4078 39.52C20.6878 39.6 19.9678 39.64 19.2478 39.64C17.3278 39.64 15.5278 39.3867 13.8478 38.88C12.1678 38.3467 10.7011 37.56 9.44778 36.52C8.22111 35.4533 7.24778 34.1333 6.52778 32.56C5.80778 30.9867 5.44778 29.16 5.44778 27.08C5.44778 24.8933 5.83444 22.9867 6.60778 21.36C7.40778 19.7333 8.44778 18.3867 9.72778 17.32C11.0344 16.2267 12.5144 15.4133 14.1678 14.88C15.8478 14.3467 17.5678 14.08 19.3278 14.08C21.8611 14.08 23.8611 14.4933 25.3278 15.32C26.8211 16.12 27.5678 17.1733 27.5678 18.48C27.5678 19.1733 27.3944 19.7733 27.0478 20.28C26.7011 20.7867 26.3011 21.1867 25.8478 21.48C25.1811 21.08 24.3411 20.6933 23.3278 20.32C22.3411 19.92 21.2211 19.72 19.9678 19.72C17.7278 19.72 15.9411 20.36 14.6078 21.64C13.3011 22.92 12.6478 24.6933 12.6478 26.96C12.6478 28.1867 12.8211 29.2533 13.1678 30.16C13.5411 31.04 14.0344 31.7733 14.6478 32.36C15.2611 32.92 15.9678 33.3467 16.7678 33.64C17.5678 33.9067 18.4211 34.04 19.3278 34.04C19.9144 34.04 20.4344 33.9867 20.8878 33.88C21.3411 33.7733 21.6878 33.6533 21.9278 33.52V29.76H17.6478C17.4878 29.4667 17.3278 29.08 17.1678 28.6C17.0344 28.12 16.9678 27.6133 16.9678 27.08C16.9678 26.12 17.1811 25.4267 17.6078 25C18.0611 24.5733 18.6344 24.36 19.3278 24.36H26.0878C26.8878 24.36 27.5011 24.5867 27.9278 25.04C28.3811 25.4667 28.6078 26.08 28.6078 26.88V35.04ZM41.0406 34.68C41.4939 34.68 41.9873 34.64 42.5206 34.56C43.0806 34.4533 43.4939 34.32 43.7606 34.16V30.96L40.8806 31.2C40.1339 31.2533 39.5206 31.4133 39.0406 31.68C38.5606 31.9467 38.3206 32.3467 38.3206 32.88C38.3206 33.4133 38.5206 33.8533 38.9206 34.2C39.3473 34.52 40.0539 34.68 41.0406 34.68ZM40.7206 18.96C42.1606 18.96 43.4673 19.1067 44.6406 19.4C45.8406 19.6933 46.8539 20.1467 47.6806 20.76C48.5339 21.3467 49.1873 22.1067 49.6406 23.04C50.0939 23.9467 50.3206 25.0267 50.3206 26.28V35.24C50.3206 35.9333 50.1206 36.5067 49.7206 36.96C49.3473 37.3867 48.8939 37.76 48.3606 38.08C46.6273 39.12 44.1873 39.64 41.0406 39.64C39.6273 39.64 38.3473 39.5067 37.2006 39.24C36.0806 38.9733 35.1073 38.5733 34.2806 38.04C33.4806 37.5067 32.8539 36.8267 32.4006 36C31.9739 35.1733 31.7606 34.2133 31.7606 33.12C31.7606 31.28 32.3073 29.8667 33.4006 28.88C34.4939 27.8933 36.1873 27.28 38.4806 27.04L43.7206 26.48V26.2C43.7206 25.4267 43.3739 24.88 42.6806 24.56C42.0139 24.2133 41.0406 24.04 39.7606 24.04C38.7473 24.04 37.7606 24.1467 36.8006 24.36C35.8406 24.5733 34.9739 24.84 34.2006 25.16C33.8539 24.92 33.5606 24.56 33.3206 24.08C33.0806 23.5733 32.9606 23.0533 32.9606 22.52C32.9606 21.8267 33.1206 21.28 33.4406 20.88C33.7873 20.4533 34.3073 20.0933 35.0006 19.8C35.7739 19.5067 36.6806 19.2933 37.7206 19.16C38.7873 19.0267 39.7873 18.96 40.7206 18.96Z" fill="#3A3330"/>
<path d="M28.6078 35.04C28.6078 35.8667 28.4611 36.48 28.1678 36.88C27.8744 37.28 27.4078 37.6667 26.7678 38.04C26.3944 38.2533 25.9278 38.4667 25.3678 38.68C24.8078 38.8667 24.1944 39.0267 23.5278 39.16C22.8611 39.32 22.1544 39.44 21.4078 39.52C20.6878 39.6 19.9678 39.64 19.2478 39.64C17.3278 39.64 15.5278 39.3867 13.8478 38.88C12.1678 38.3467 10.7011 37.56 9.44778 36.52C8.22111 35.4533 7.24778 34.1333 6.52778 32.56C5.80778 30.9867 5.44778 29.16 5.44778 27.08C5.44778 24.8933 5.83444 22.9867 6.60778 21.36C7.40778 19.7333 8.44778 18.3867 9.72778 17.32C11.0344 16.2267 12.5144 15.4133 14.1678 14.88C15.8478 14.3467 17.5678 14.08 19.3278 14.08C21.8611 14.08 23.8611 14.4933 25.3278 15.32C26.8211 16.12 27.5678 17.1733 27.5678 18.48C27.5678 19.1733 27.3944 19.7733 27.0478 20.28C26.7011 20.7867 26.3011 21.1867 25.8478 21.48C25.1811 21.08 24.3411 20.6933 23.3278 20.32C22.3411 19.92 21.2211 19.72 19.9678 19.72C17.7278 19.72 15.9411 20.36 14.6078 21.64C13.3011 22.92 12.6478 24.6933 12.6478 26.96C12.6478 28.1867 12.8211 29.2533 13.1678 30.16C13.5411 31.04 14.0344 31.7733 14.6478 32.36C15.2611 32.92 15.9678 33.3467 16.7678 33.64C17.5678 33.9067 18.4211 34.04 19.3278 34.04C19.9144 34.04 20.4344 33.9867 20.8878 33.88C21.3411 33.7733 21.6878 33.6533 21.9278 33.52V29.76H17.6478C17.4878 29.4667 17.3278 29.08 17.1678 28.6C17.0344 28.12 16.9678 27.6133 16.9678 27.08C16.9678 26.12 17.1811 25.4267 17.6078 25C18.0611 24.5733 18.6344 24.36 19.3278 24.36H26.0878C26.8878 24.36 27.5011 24.5867 27.9278 25.04C28.3811 25.4667 28.6078 26.08 28.6078 26.88V35.04ZM41.0406 34.68C41.4939 34.68 41.9873 34.64 42.5206 34.56C43.0806 34.4533 43.4939 34.32 43.7606 34.16V30.96L40.8806 31.2C40.1339 31.2533 39.5206 31.4133 39.0406 31.68C38.5606 31.9467 38.3206 32.3467 38.3206 32.88C38.3206 33.4133 38.5206 33.8533 38.9206 34.2C39.3473 34.52 40.0539 34.68 41.0406 34.68ZM40.7206 18.96C42.1606 18.96 43.4673 19.1067 44.6406 19.4C45.8406 19.6933 46.8539 20.1467 47.6806 20.76C48.5339 21.3467 49.1873 22.1067 49.6406 23.04C50.0939 23.9467 50.3206 25.0267 50.3206 26.28V35.24C50.3206 35.9333 50.1206 36.5067 49.7206 36.96C49.3473 37.3867 48.8939 37.76 48.3606 38.08C46.6273 39.12 44.1873 39.64 41.0406 39.64C39.6273 39.64 38.3473 39.5067 37.2006 39.24C36.0806 38.9733 35.1073 38.5733 34.2806 38.04C33.4806 37.5067 32.8539 36.8267 32.4006 36C31.9739 35.1733 31.7606 34.2133 31.7606 33.12C31.7606 31.28 32.3073 29.8667 33.4006 28.88C34.4939 27.8933 36.1873 27.28 38.4806 27.04L43.7206 26.48V26.2C43.7206 25.4267 43.3739 24.88 42.6806 24.56C42.0139 24.2133 41.0406 24.04 39.7606 24.04C38.7473 24.04 37.7606 24.1467 36.8006 24.36C35.8406 24.5733 34.9739 24.84 34.2006 25.16C33.8539 24.92 33.5606 24.56 33.3206 24.08C33.0806 23.5733 32.9606 23.0533 32.9606 22.52C32.9606 21.8267 33.1206 21.28 33.4406 20.88C33.7873 20.4533 34.3073 20.0933 35.0006 19.8C35.7739 19.5067 36.6806 19.2933 37.7206 19.16C38.7873 19.0267 39.7873 18.96 40.7206 18.96Z" fill="black" fill-opacity="0.2"/>
<path d="M71.5934 33.04C71.2467 33.3333 70.7934 33.5733 70.2334 33.76C69.7001 33.92 69.0734 34 68.3534 34C67.3934 34 66.5934 33.88 65.9534 33.64C65.3401 33.4 64.9401 32.9867 64.7534 32.4C64.0067 30.0533 63.3934 28.16 62.9134 26.72C62.4334 25.2533 62.0601 23.9733 61.7934 22.88H61.5934C61.5134 24.4533 61.4467 25.8933 61.3934 27.2C61.3667 28.48 61.3401 29.7333 61.3134 30.96C61.3134 32.1867 61.2867 33.4267 61.2334 34.68C61.2067 35.9333 61.1534 37.32 61.0734 38.84C60.7267 38.9733 60.2734 39.08 59.7134 39.16C59.1534 39.2667 58.5934 39.32 58.0334 39.32C56.8601 39.32 55.9401 39.1333 55.2734 38.76C54.6334 38.3867 54.3134 37.7067 54.3134 36.72L55.4734 16.32C55.6867 15.9733 56.1534 15.6 56.8734 15.2C57.5934 14.8 58.6067 14.6 59.9134 14.6C61.3267 14.6 62.4334 14.8267 63.2334 15.28C64.0334 15.7067 64.6201 16.4133 64.9934 17.4C65.2334 18.04 65.4867 18.7733 65.7534 19.6C66.0467 20.4267 66.3267 21.28 66.5934 22.16C66.8867 23.04 67.1667 23.92 67.4334 24.8C67.7001 25.6533 67.9401 26.4267 68.1534 27.12H68.3534C68.9934 24.88 69.6334 22.72 70.2734 20.64C70.9134 18.5333 71.5001 16.7733 72.0334 15.36C72.4334 15.1467 72.9401 14.9733 73.5534 14.84C74.1934 14.68 74.9001 14.6 75.6734 14.6C76.9801 14.6 78.0467 14.8 78.8734 15.2C79.7001 15.5733 80.1801 16.12 80.3134 16.84C80.4201 17.3733 80.5267 18.2 80.6334 19.32C80.7667 20.4133 80.9001 21.6533 81.0334 23.04C81.1667 24.4267 81.3001 25.8933 81.4334 27.44C81.5667 28.9867 81.6867 30.48 81.7934 31.92C81.9267 33.3333 82.0334 34.64 82.1134 35.84C82.1934 37.0133 82.2467 37.92 82.2734 38.56C81.8201 38.8267 81.3401 39.0133 80.8334 39.12C80.3534 39.2533 79.7267 39.32 78.9534 39.32C77.9401 39.32 77.0867 39.1467 76.3934 38.8C75.7001 38.4533 75.3267 37.7733 75.2734 36.76C75.1134 33.8533 75.0067 31.24 74.9534 28.92C74.9267 26.6 74.8734 24.6533 74.7934 23.08H74.5934C74.3267 24.12 73.9401 25.4267 73.4334 27C72.9267 28.5733 72.3134 30.5867 71.5934 33.04ZM93.5434 38.84C93.2501 38.92 92.7834 39 92.1434 39.08C91.5301 39.16 90.9167 39.2 90.3034 39.2C89.6901 39.2 89.1434 39.1467 88.6634 39.04C88.2101 38.96 87.8234 38.8 87.5034 38.56C87.1834 38.32 86.9434 37.9867 86.7834 37.56C86.6234 37.1333 86.5434 36.5733 86.5434 35.88V14.76C86.8367 14.7067 87.3034 14.64 87.9434 14.56C88.5834 14.4533 89.1967 14.4 89.7834 14.4C90.3967 14.4 90.9301 14.4533 91.3834 14.56C91.8634 14.64 92.2634 14.8 92.5834 15.04C92.9034 15.28 93.1434 15.6133 93.3034 16.04C93.4634 16.4667 93.5434 17.0267 93.5434 17.72V38.84Z" fill="#F69946"/>
<path d="M90.4925 7.19848C90.4925 7.19848 85.3169 6.95023 85.6122 10.9528C85.9145 15.0131 89.0493 11.7005 92.0504 13.5924C94.771 15.3121 96.9558 8.01908 90.4925 7.19848Z" fill="#3A3330"/>
<path d="M90.4925 7.19848C90.4925 7.19848 85.3169 6.95023 85.6122 10.9528C85.9145 15.0131 89.0493 11.7005 92.0504 13.5924C94.771 15.3121 96.9558 8.01908 90.4925 7.19848Z" fill="black" fill-opacity="0.2"/>
<path d="M91.0861 5.71986C91.0861 5.71986 93.0742 1.5756 90.2316 1.52792C87.3947 1.48196 89.0522 8.19629 91.0861 5.71986Z" fill="#3A3330"/>
<path d="M91.0861 5.71986C91.0861 5.71986 93.0742 1.5756 90.2316 1.52792C87.3947 1.48196 89.0522 8.19629 91.0861 5.71986Z" fill="black" fill-opacity="0.2"/>
<path d="M87.2367 6.90731C87.2367 6.90731 88.0204 2.38276 85.2756 3.10549C82.5309 3.82822 85.9573 9.8426 87.2367 6.90731Z" fill="#3A3330"/>
<path d="M87.2367 6.90731C87.2367 6.90731 88.0204 2.38276 85.2756 3.10549C82.5309 3.82822 85.9573 9.8426 87.2367 6.90731Z" fill="black" fill-opacity="0.2"/>
<path d="M94.3408 7.30663C94.3408 7.30663 97.7216 4.19878 95.1082 3.09799C92.4948 1.9972 91.5422 8.85214 94.3408 7.30663Z" fill="#3A3330"/>
<path d="M94.3408 7.30663C94.3408 7.30663 97.7216 4.19878 95.1082 3.09799C92.4948 1.9972 91.5422 8.85214 94.3408 7.30663Z" fill="black" fill-opacity="0.2"/>
<path d="M96.2476 11.3264C96.2476 11.3264 99.5803 10.1538 97.9553 8.42318C96.3304 6.69257 93.764 11.5179 96.2476 11.3264Z" fill="#3A3330"/>
<path d="M96.2476 11.3264C96.2476 11.3264 99.5803 10.1538 97.9553 8.42318C96.3304 6.69257 93.764 11.5179 96.2476 11.3264Z" fill="black" fill-opacity="0.2"/>
</svg>
