<svg width="102" height="77" viewBox="0 0 102 77" fill="none" xmlns="http://www.w3.org/2000/svg">
<g clip-path="url(#clip0_100_4527)">
<path d="M74.6981 5.58985C73.4517 5.46798 72.163 5.43214 70.8372 5.4859C69.5521 4.15255 68.8839 3.69196 68.2969 3.7296C67.6358 3.77261 67.1157 4.47334 66.2536 5.63286C66.1514 5.77086 66.0438 5.91602 65.931 6.06656C64.7216 6.29775 63.5087 6.59704 62.3064 6.95188C64.8962 2.95898 66.5692 0.912343 68.4256 0.81019C70.0422 0.722375 71.8668 2.11129 74.6981 5.58985Z" fill="#9E6C48"/>
<g opacity="0.6">
<path opacity="0.6" d="M74.6982 5.58985C74.1905 5.54146 73.6757 5.50562 73.1539 5.48411C70.7915 2.73854 69.1714 1.62741 67.7205 1.70626C66.6063 1.7672 65.5574 2.52886 64.3374 3.99304C65.8729 1.94283 67.1017 0.883668 68.4257 0.81019C70.0423 0.722375 71.8669 2.11129 74.6982 5.58985Z" fill="white"/>
</g>
<path d="M70.5991 5.4967C70.4211 5.50567 70.2413 5.51463 70.0597 5.52717C68.7904 5.6114 67.4911 5.77986 66.1865 6.02001C66.257 5.92503 66.3276 5.83184 66.3945 5.74223C67.2249 4.62214 67.7273 3.9447 68.3091 3.90707C68.8168 3.8766 69.4444 4.3103 70.5991 5.4967Z" fill="#FC744F"/>
<path d="M96.1284 33.7893C96.2359 32.3269 96.2377 30.8735 96.1319 29.4397C96.1548 29.4397 96.1777 29.429 96.1954 29.4093C98.0218 27.2408 99.0725 25.7031 98.6582 24.7371C98.3426 24.0024 97.2285 23.6314 95.053 23.54C94.6264 22.1099 94.0886 20.7227 93.4417 19.3894C97.9107 20.1636 100.312 21.4073 100.994 23.2963C101.798 25.5293 100.296 28.7713 96.1284 33.7893Z" fill="#9E6C48"/>
<g opacity="0.6">
<path opacity="0.6" d="M98.8565 26.1297C99.2672 27.0885 98.2341 28.6118 96.4324 30.757C96.4218 30.3162 96.4007 29.8771 96.3672 29.4398C96.3901 29.4398 96.413 29.429 96.4307 29.4093C97.5942 28.0276 98.4439 26.9021 98.7983 26.0168C98.8212 26.0526 98.8406 26.0903 98.8565 26.1297Z" fill="white"/>
</g>
<g opacity="0.6">
<path opacity="0.6" d="M101.126 25.3859C101.093 25.1422 101.036 24.911 100.957 24.6888C100.312 22.9038 98.1328 21.6959 94.1257 20.9145C93.9124 20.4001 93.6849 19.8912 93.4417 19.3894C97.9107 20.1636 100.312 21.4073 100.994 23.2963C101.216 23.911 101.262 24.6027 101.126 25.3859Z" fill="white"/>
</g>
<path d="M96.1161 29.2283C96.035 28.2462 95.9063 27.2713 95.7247 26.3107C95.559 25.4325 95.351 24.5705 95.106 23.721C97.1369 23.8142 98.2175 24.1601 98.4961 24.8089C98.8698 25.6799 97.8649 27.1458 96.1161 29.2283Z" fill="#FC744F"/>
<path d="M93.2231 19.3357C93.2073 19.3214 93.1985 19.3016 93.1949 19.2819C91.7105 16.2729 89.6479 13.5112 87.0247 11.1079C80.3837 4.95011 70.6576 4.62932 62.1531 7.17417C62.1373 7.18671 62.1196 7.19388 62.1003 7.19388C62.0985 7.19388 62.095 7.19209 62.0932 7.19209C59.2478 8.04874 56.5417 9.22439 54.1335 10.6079C53.654 10.8857 53.1146 11.0631 52.554 11.133C55.6779 11.599 58.2394 12.9969 60.0165 15.2335C62.5657 18.4414 63.4207 23.1942 62.4881 28.9774C61.7389 32.0277 61.3651 35.2195 61.3757 38.4687C61.3863 41.4239 60.6881 44.2573 59.3554 46.6624C58.4721 48.2592 57.3562 49.6606 56.0005 50.8775C61.3351 56.8615 78.6066 61.4458 86.4217 55.4457C88.9674 52.5567 91.0565 49.3954 92.6484 45.9993C96.9958 36.7392 97.0804 27.1978 93.2231 19.3357ZM73.5188 35.4596C73.2949 35.7912 73.0269 36.1012 72.7043 36.3468C72.4769 36.5242 72.2213 36.6658 71.9498 36.7643C71.9498 36.7894 71.941 36.8127 71.9216 36.8306C70.3279 38.302 69.0251 39.4561 67.784 40.1192C67.7822 40.1192 67.7804 40.121 67.7769 40.1228C67.4384 40.3038 67.1035 40.449 66.7685 40.5511C66.4935 40.6372 66.2132 40.6784 65.9346 40.6784C65.2806 40.6784 64.6406 40.449 64.1276 40.0135C63.3978 39.3934 63.0276 38.4472 63.1369 37.4794C63.1721 37.1658 63.2374 36.8504 63.3167 36.5296C63.3184 36.5242 63.3202 36.5206 63.3202 36.5152C63.4947 35.8324 63.7504 35.1335 64.0183 34.4059C64.2863 33.6729 64.5648 32.9166 64.7641 32.1513C64.7394 32.0617 64.72 31.9703 64.7076 31.8789C64.6512 31.4775 64.7094 31.0653 64.854 30.6961C64.9932 30.3233 65.2136 29.99 65.4675 29.6961C65.4763 29.6853 65.4921 29.6836 65.5027 29.6925C65.5133 29.7015 65.5151 29.7176 65.5062 29.7284C65.2718 30.0348 65.0831 30.3753 64.9597 30.7355C64.8346 31.094 64.7958 31.4847 64.8628 31.8538C64.8786 31.9452 64.9016 32.0348 64.9298 32.1209C64.9315 32.1245 64.9333 32.128 64.9333 32.1316C65.136 32.7499 65.6279 33.2678 66.2432 33.4596C66.594 33.5707 66.9748 33.5815 67.3344 33.5026C67.6941 33.422 68.0308 33.2392 68.304 32.9883C68.3745 32.9291 68.4345 32.8574 68.4944 32.7858C68.5561 32.7194 68.6143 32.637 68.6742 32.5617L68.7871 32.4148L68.8629 32.2893C68.9845 32.1262 69.1115 31.9632 69.2437 31.8198L69.7373 31.1782C69.7673 31.1388 69.8219 31.1316 69.8607 31.1621C69.8995 31.1925 69.9048 31.2499 69.8748 31.2875L69.1679 32.2105L68.9316 32.5187L68.8576 32.6388C68.8118 32.7248 68.7765 32.8162 68.7359 32.904C68.5896 33.2625 68.5156 33.6514 68.5209 34.0403C68.5209 34.8198 68.8611 35.5958 69.4464 36.0941C70.0247 36.5977 70.8268 36.845 71.5778 36.6962C71.9533 36.6281 72.3094 36.4615 72.6303 36.2428C72.9494 36.0206 73.2314 35.7392 73.48 35.4292C73.4871 35.4184 73.5029 35.4166 73.5153 35.4256C73.5241 35.4346 73.5276 35.4489 73.5188 35.4596Z" fill="#F69946"/>
<path d="M62.4922 28.3602C68.5951 24.9003 75.7357 30.4631 75.5827 36.9822C75.5284 39.2959 74.2605 41.4074 72.305 42.5924C68.0881 45.1473 63.167 45.21 60.9912 41.7888" fill="white"/>
<path d="M80.9446 57.8916C80.2073 50.8667 80.4926 49.7072 87.0387 54.8661L80.9446 57.8916Z" fill="#9E6C48"/>
<path d="M89.4824 51.6753C84.4383 45.8541 83.028 44.1583 93.4176 44.4856L89.4824 51.6753Z" fill="#9E6C48"/>
<g opacity="0.3">
<path opacity="0.3" d="M94.9747 29.0656C94.4882 30.6032 93.8852 32.1427 93.166 33.6732C91.574 37.0693 89.4849 40.2307 86.9393 43.1196C80.5539 48.0229 67.852 45.858 60.5111 41.6375C60.2907 43.935 59.6314 46.1143 58.5736 48.0247C57.6904 49.6215 56.5744 51.023 55.2188 52.2399C60.5534 58.2238 77.8249 62.8082 85.64 56.8081C88.1857 53.9191 90.2747 50.7578 91.8667 47.3616C94.7614 41.1948 95.7663 34.9026 94.9747 29.0656Z" fill="black"/>
</g>
<path d="M91.2585 15.8302C85.2532 20.9013 86.396 23.1852 94.687 22.6823L91.2585 15.8302Z" fill="#9E6C48"/>
<path d="M81.4095 7.33084C75.3006 19.4891 77.8837 21.4289 89.1594 13.1499L81.4095 7.33084Z" fill="#9E6C48"/>
<path d="M71.0947 5.52721C72.2424 15.0966 75.4746 14.7381 78.1895 6.55411L71.0947 5.52721Z" fill="#9E6C48"/>
<g opacity="0.6">
<path opacity="0.6" d="M93.2231 19.3357C93.2073 19.3213 93.1985 19.3016 93.1949 19.2819C91.7105 16.2729 89.6479 13.5112 87.0247 11.1079C80.3837 4.95011 70.6576 4.62932 62.1531 7.17417C62.1373 7.18671 62.1196 7.19388 62.1003 7.19388C62.0985 7.19388 62.095 7.19209 62.0932 7.19209C59.2478 8.04874 56.5417 9.22439 54.1335 10.6079C53.654 10.8857 53.1146 11.0631 52.554 11.133C53.5077 11.2746 54.4068 11.504 55.2495 11.8176C57.3668 10.6975 59.6797 9.74052 62.0932 9.01471C62.095 9.01471 62.0985 9.0165 62.1003 9.0165C62.1196 9.0165 62.1373 9.00933 62.1531 8.99678C70.6576 6.45193 80.3837 6.77273 87.0247 12.9305C89.6479 15.3338 91.7105 18.0955 93.1949 21.1045C93.1985 21.1242 93.2073 21.144 93.2231 21.1583C94.9455 24.6673 95.8817 28.5115 96.0033 32.5169C96.1461 27.8573 95.2047 23.3752 93.2231 19.3357Z" fill="white"/>
</g>
<path d="M64.5066 71.8671C64.3374 71.9495 64.1664 72.032 63.9972 72.1126C61.9028 73.1091 59.8084 73.9603 57.714 74.6593C57.06 74.8779 56.4042 75.0822 55.7501 75.2722C54.8052 75.5464 53.8479 75.7579 52.8836 75.9084C52.9136 73.8815 52.8007 72.17 52.6526 70.8402C52.6297 70.6377 52.6068 70.4441 52.5821 70.2595C52.4481 69.2219 52.3018 68.4745 52.2119 68.0623C52.2912 68.1555 52.3723 68.2487 52.457 68.3365C52.531 68.4136 52.6051 68.4889 52.6826 68.5624C53.0758 68.9423 53.5112 69.2774 53.9608 69.5785C55.045 70.2972 56.2385 70.8241 57.469 71.2112C58.5603 71.5553 59.6868 71.7846 60.8239 71.9011C60.8362 71.9011 60.8468 71.9029 60.8574 71.9047C60.9913 71.9191 61.1236 71.9316 61.2576 71.9424C62.3382 72.0266 63.4295 72.0105 64.5066 71.8671Z" fill="#9E6C48"/>
<path d="M52.7072 75.9353C50.3502 76.2883 47.9667 76.2776 45.6643 75.8941C45.4334 75.8582 45.2024 75.817 44.9732 75.7704C41.6219 75.1001 38.1031 73.8958 34.3762 72.1359C35.672 72.4531 37.003 72.6126 38.3358 72.6359C40.0053 72.661 41.6748 72.4675 43.302 72.0857C44.9256 71.6968 46.5123 71.1162 47.9667 70.2721C48.6913 69.8491 49.3823 69.3563 49.9958 68.7738C50.5706 68.2398 51.0624 67.6036 51.4132 66.8885C51.4644 66.9871 51.519 67.0856 51.5772 67.1806C51.6918 67.376 51.8187 67.5659 51.9545 67.7469C51.965 67.7882 52.025 68.0176 52.1061 68.4208C52.1607 68.6896 52.2242 69.0337 52.2894 69.4513C52.5098 70.8581 52.7513 73.0858 52.7072 75.9353Z" fill="#5C4D48"/>
<path d="M85.8873 56.0389C85.0834 56.917 84.239 57.7683 83.3505 58.5927C77.3177 64.177 71.1862 68.5283 65.0353 71.6055C63.7942 71.8241 62.5267 71.8617 61.2715 71.7632C60.0004 71.6628 58.7381 71.4227 57.5199 71.0391C56.3035 70.6556 55.1241 70.1359 54.0575 69.428C53.0033 68.7291 52.0495 67.8186 51.5013 66.6663V59.9547C51.7622 59.2791 52.1782 58.659 52.7565 58.2325C53.3347 57.8005 54.054 57.5801 54.7697 57.5873C55.4873 57.5944 56.203 57.8185 56.7918 58.2342C57.3789 58.6446 57.8284 59.2558 58.0241 59.9529C58.0682 60.6536 58.0752 61.3615 58.0488 62.0659C58.0188 62.7738 57.9554 63.4834 57.7932 64.1716C57.7897 64.186 57.7985 64.2003 57.8108 64.2039C57.8249 64.2075 57.839 64.1985 57.8425 64.186C58.0259 63.496 58.1105 62.7827 58.1616 62.073C58.2057 61.401 58.2198 60.7289 58.2022 60.0533C59.4574 60.3902 60.739 60.6106 62.0278 60.745C63.3552 60.8848 64.6898 60.9458 66.0226 60.9314C68.6899 60.9028 71.3484 60.6519 73.9822 60.2612C73.9946 60.2594 74.0052 60.2468 74.0034 60.2325C74.0016 60.2181 73.9893 60.2092 73.9752 60.211C72.6547 60.3759 71.3308 60.5121 70.005 60.6124C68.6793 60.711 67.3501 60.7683 66.0226 60.763C64.6951 60.7576 63.3658 60.7056 62.0471 60.5587C60.7443 60.4153 59.4486 60.1913 58.1793 59.8615C57.9677 59.1411 57.497 58.5102 56.8923 58.0873C56.2718 57.65 55.5243 57.4152 54.7715 57.4081C54.0205 57.3991 53.2624 57.6321 52.6525 58.0873C52.0883 58.5049 51.674 59.0963 51.399 59.7396C51.1028 59.2361 50.7397 58.7629 50.2884 58.3884L49.0032 54.865C51.7463 53.8972 54.0258 52.6141 55.8681 50.9958C59.4609 55.0281 68.4343 58.426 76.3428 58.426C79.9515 58.426 83.3364 57.7163 85.8873 56.0389Z" fill="#F69946"/>
<path d="M65.5752 60.8493C65.9282 58.0575 66.6499 56.86 66.6499 56.86C62.3582 55.8019 58.8447 53.8471 56.1097 50.9958L49.2236 54.9224L50.2409 58.2579L51.4125 59.9375C53.7234 56.6794 56.0392 56.9529 58.3592 60.0941C60.651 60.7508 63.057 61.0006 65.5752 60.8493Z" fill="white"/>
<path d="M64.5596 60.8292C65.416 62.2321 65.6283 64.2483 65.6226 66.472C65.6198 67.4939 66.6687 68.1591 67.577 67.7215C69.6788 66.7093 71.1868 64.7082 71.3966 60.5468" fill="#9E6C48"/>
<path d="M62.1371 60.3479L58.4818 59.9371C55.2592 56.3478 53.2279 57.1485 51.6123 59.4823L51.5154 66.643C51.5154 66.643 54.2381 71.709 59.2452 71.5732C65.4877 71.4037 62.251 60.6776 62.251 60.6776" fill="white"/>
<g opacity="0.3">
<path opacity="0.3" d="M54.925 57.5926C53.3172 57.7055 51.9016 59.1607 51.9016 59.1607C52.1308 58.8023 52.4164 58.4833 52.7566 58.2324C53.3349 57.8005 54.0542 57.5801 54.7699 57.5873C54.821 57.5873 54.8739 57.589 54.925 57.5926Z" fill="black"/>
</g>
<g opacity="0.3">
<path opacity="0.3" d="M58.0243 59.9529C57.6999 59.245 57.3403 58.7271 56.9595 58.3597C57.4654 58.7647 57.848 59.3239 58.0243 59.9529Z" fill="black"/>
</g>
<g opacity="0.3">
<path opacity="0.3" d="M72.7184 60.4367C68.6213 61.2432 64.8592 61.0945 62.1672 60.7593C63.4489 60.8884 64.7358 60.9457 66.0228 60.9314C68.2635 60.9081 70.4989 60.7271 72.7184 60.4367Z" fill="black"/>
</g>
<g opacity="0.3">
<path opacity="0.3" d="M85.8873 56.0389C85.0834 56.917 84.239 57.7683 83.3505 58.5927C77.3177 64.177 71.1862 68.5283 65.0353 71.6055C63.7942 71.8241 62.5267 71.8617 61.2715 71.7632C60.0004 71.6628 58.7381 71.4227 57.5199 71.0391C56.3035 70.6556 55.1241 70.1359 54.0575 69.428C53.0033 68.7291 52.0495 67.8186 51.5013 66.6663V59.9547C51.6088 59.6769 51.741 59.4099 51.9014 59.1608L51.5506 64.0516C53.1584 66.9136 64.7515 66.3294 70.0403 64.5319C74.8619 62.892 73.7883 60.6967 73.5609 60.3221C73.7019 60.3024 73.8412 60.2827 73.9822 60.2612C73.9946 60.2594 74.0052 60.2468 74.0034 60.2325C74.0016 60.2181 73.9893 60.2092 73.9752 60.211C72.6547 60.3759 71.3308 60.5121 70.005 60.6124C68.6793 60.711 67.3501 60.7683 66.0226 60.763C64.6951 60.7576 63.3658 60.7056 62.0471 60.5587C60.7443 60.4153 59.4486 60.1913 58.1793 59.8615C57.9677 59.1411 57.497 58.5102 56.8923 58.0873C56.2718 57.65 55.5243 57.4152 54.7715 57.4081C54.0205 57.3991 53.2624 57.6321 52.6525 58.0873C52.0883 58.5049 51.674 59.0963 51.399 59.7396C51.1028 59.2361 50.7397 58.7629 50.2884 58.3884L49.0032 54.865C51.7463 53.8972 54.0258 52.6141 55.8681 50.9958C59.4609 55.0281 68.4343 58.426 76.3428 58.426C79.9515 58.426 83.3364 57.7163 85.8873 56.0389Z" fill="black"/>
</g>
<g opacity="0.3">
<path opacity="0.3" d="M52.4199 69.1538C52.404 69.1341 52.367 69.2434 52.2894 69.4513C51.8963 70.4818 50.4771 73.9263 45.6643 75.8941C45.4334 75.8582 45.2024 75.817 44.9732 75.7704C41.6219 75.1001 38.1031 73.8958 34.3762 72.1359C35.672 72.4531 37.003 72.6126 38.3358 72.6359C40.0053 72.661 41.6748 72.4675 43.302 72.0857C44.9256 71.6968 46.5123 71.1162 47.9667 70.2721C48.6913 69.8491 49.3823 69.3563 49.9959 68.7738C50.5706 68.2398 51.0624 67.6036 51.4133 66.8885C51.4644 66.9871 51.519 67.0856 51.5772 67.1806L52.1061 68.4208L52.4199 69.1538Z" fill="black"/>
</g>
<path d="M51.3252 59.9619V66.6663C50.9832 67.4136 50.4772 68.0839 49.876 68.643C49.2731 69.2129 48.5944 69.6986 47.8786 70.1162C46.4436 70.9495 44.8711 71.5266 43.2615 71.9101C41.6502 72.2901 39.993 72.4818 38.3376 72.4567C36.691 72.4281 35.0444 72.1933 33.4719 71.7004C29.2232 69.6108 24.7031 66.8132 19.8497 63.2702C18.97 62.625 18.1202 61.9727 17.3022 61.3113C18.2348 61.6142 19.1286 61.7666 19.966 61.7666C20.3345 61.7666 20.6924 61.7379 21.0379 61.6805C22.7427 61.3956 24.1548 60.4135 25.1297 58.779C25.4664 58.2091 25.7397 57.5801 25.9459 56.9027C25.9583 56.9116 25.9741 56.9188 25.9918 56.9206C28.2889 57.0496 30.4485 57.1159 32.4811 57.1159C37.9762 57.1159 42.5387 56.6392 46.3149 55.6768C47.1946 55.451 48.0355 55.2001 48.8359 54.9223L50.0276 58.1876C50.0047 58.1715 49.9836 58.1536 49.9589 58.1374C49.3101 57.6966 48.5133 57.4815 47.7358 57.5317C46.9548 57.5747 46.2021 57.8453 45.541 58.2557C45.0509 58.5586 44.6084 58.9385 44.2346 59.3794C44.2329 59.3812 44.2311 59.383 44.2311 59.383C44.1077 59.5282 43.9913 59.6805 43.882 59.8382C43.2826 60.0264 42.6727 60.1787 42.0556 60.2988C42.0468 60.3006 42.038 60.3024 42.0292 60.3042C40.6206 60.5748 39.1768 60.668 37.7417 60.6017C36.5905 60.5479 35.4446 60.3956 34.3128 60.1644C34.3128 60.1644 34.3075 60.1626 34.2952 60.1608C34.0378 60.107 33.7804 60.0497 33.5248 59.9887C32.8778 59.8346 32.2361 59.6572 31.6014 59.4583C31.5891 59.4547 31.575 59.4618 31.5697 59.4744C31.5662 59.4887 31.5732 59.5031 31.5873 59.5066C31.9981 59.6411 32.4106 59.7647 32.8249 59.8794C34.4292 60.3221 36.074 60.6232 37.7364 60.7164C39.8114 60.8346 41.9111 60.6196 43.9103 60.0156C43.8415 60.5837 43.8098 61.1483 43.7904 61.7164C43.771 62.2952 43.7675 62.8741 43.778 63.453C43.778 63.4655 43.7886 63.4763 43.8027 63.4781C43.8168 63.4781 43.8274 63.4655 43.8274 63.4512C43.838 62.8741 43.8627 62.297 43.9032 61.7217C43.9438 61.1483 43.9984 60.5712 44.0883 60.0085V60.0049C44.0883 60.0031 44.0883 60.0031 44.0883 60.0013C44.0936 59.9654 44.076 59.9296 44.046 59.9135C44.3475 59.4798 44.7142 59.0909 45.1284 58.7647C45.2889 58.6357 45.4581 58.5156 45.6326 58.4081C46.2726 58.012 46.9989 57.7521 47.7446 57.7091C48.4886 57.6625 49.2431 57.8668 49.8619 58.288C50.1211 58.46 50.3556 58.6679 50.5671 58.8973C50.8615 59.2163 51.1119 59.5801 51.3252 59.9619Z" fill="#5C4D48"/>
<path d="M42.798 72.1087C40.5439 70.7162 37.3678 65.7469 39.3507 60.6776L43.8025 59.955C43.8025 59.955 47.3873 54.6589 51.4124 59.7102L51.5386 66.9405C51.5386 66.9401 47.4349 71.9735 42.798 72.1087Z" fill="white"/>
<g opacity="0.3">
<path opacity="0.3" d="M51.3252 61.5497V66.6663C50.9832 67.4136 50.4772 68.0839 49.876 68.643C49.2731 69.2129 48.5944 69.6986 47.8786 70.1162C46.4436 70.9495 44.8711 71.5266 43.2615 71.9101C41.6502 72.2901 39.993 72.4818 38.3376 72.4567C36.691 72.4281 35.0444 72.1933 33.4719 71.7004C29.2232 69.6108 24.7031 66.8132 19.8497 63.2702C18.97 62.625 18.1202 61.9727 17.3022 61.3113C18.2348 61.6142 19.1286 61.7666 19.966 61.7666C20.3909 61.7666 20.8017 61.7271 21.1966 61.6519C21.2001 61.6519 21.2036 61.6501 21.2071 61.6501C21.2865 61.6339 21.3641 61.6178 21.4399 61.5981C21.4945 61.5855 21.5474 61.5712 21.6003 61.5569C21.6214 61.5515 21.6426 61.5461 21.662 61.5407C21.7043 61.53 21.7448 61.5174 21.7854 61.5049C21.8312 61.4906 21.8771 61.4762 21.9211 61.4619C21.9811 61.4422 22.041 61.4207 22.101 61.3992C22.1591 61.3777 22.2156 61.3544 22.272 61.3311C22.316 61.3131 22.3583 61.2952 22.4024 61.2755C22.6475 61.168 22.8819 61.0443 23.1076 60.9009C23.1411 60.8812 23.1746 60.8597 23.2063 60.84C23.2627 60.8024 23.3174 60.7647 23.372 60.7253C23.4285 60.6859 23.4849 60.6447 23.5413 60.5999C23.5483 60.5945 23.5571 60.5891 23.5642 60.5837C24.1654 60.116 24.6925 59.5138 25.1297 58.779C25.4664 58.2091 25.7397 57.5801 25.9459 56.9027C25.9583 56.9116 25.9741 56.9188 25.9918 56.9206C28.2889 57.0496 30.4485 57.1159 32.4811 57.1159C37.9762 57.1159 42.5387 56.6392 46.3149 55.6768C47.1946 55.451 48.0355 55.2001 48.8359 54.9223L50.0276 58.1876C50.0047 58.1715 49.9836 58.1536 49.9589 58.1374C49.3101 57.6966 48.5133 57.4815 47.7358 57.5317C46.9548 57.5747 46.2021 57.8453 45.541 58.2557C45.0509 58.5586 44.6084 58.9385 44.2346 59.3794C44.2329 59.3812 44.2311 59.383 44.2311 59.383C44.0901 59.4923 43.9473 59.6106 43.8027 59.736C43.8027 59.736 43.1751 60.0353 42.0556 60.2988C42.0468 60.3006 42.038 60.3024 42.0292 60.3042C40.3703 60.6931 37.6536 60.9995 34.3128 60.1644C34.3128 60.1644 34.3075 60.1626 34.2952 60.1608C34.2264 60.1411 33.9426 60.0658 33.5248 59.9887C33.3203 59.9511 33.0841 59.9117 32.8249 59.8794C30.8381 59.6231 27.5114 59.6877 27.0707 62.8508C29.2955 64.2236 31.4481 65.4207 33.5354 66.4476C35.1079 66.9405 36.7545 67.1753 38.4011 67.2039C40.0565 67.229 41.7136 67.0373 43.325 66.6573C44.9345 66.2738 46.5071 65.6967 47.9421 64.8634C48.6578 64.4458 49.3366 63.9601 49.9395 63.3902C50.5036 62.8651 50.9849 62.2415 51.3252 61.5497Z" fill="black"/>
</g>
<path d="M24.978 58.6858C23.3331 61.4511 20.3873 62.2862 16.8949 60.9816C5.18722 51.3918 -0.179167 40.2285 0.938536 27.7569C1.21355 24.6762 1.98748 21.7084 3.18452 18.9647C3.54592 18.8464 5.91531 18.1439 7.9374 19.2944C9.33717 20.0901 10.2733 21.5902 10.7193 23.7551C12.0909 30.3878 13.332 34.9811 17.9139 38.2733C18.552 38.732 19.0545 39.1335 19.4935 39.5367C22.6368 42.4203 24.8722 46.0763 25.7854 49.829C26.6069 53.2126 26.3143 56.4403 24.978 58.6858Z" fill="#B1431F"/>
<g opacity="0.3">
<path opacity="0.3" d="M26.1803 54.7843C26.0357 56.2557 25.6302 57.5872 24.9779 58.6858C23.3331 61.4511 20.3873 62.2862 16.8949 60.9816C5.18722 51.3918 -0.179166 40.2285 0.938536 27.7569C1.21355 24.6762 1.98748 21.7084 3.18452 18.9647C3.27795 18.9342 3.50361 18.8661 3.82094 18.7998C3.55297 19.9951 3.36081 21.2174 3.24975 22.4575C2.17435 34.4574 7.10176 45.2458 17.9047 54.5872C19.2114 55.7173 20.8791 56.3603 22.5931 56.2775C23.984 56.2105 25.204 55.7058 26.1803 54.7843Z" fill="black"/>
</g>
<g opacity="0.6">
<path opacity="0.6" d="M25.3287 58.0191C25.9069 56.0263 25.9052 53.6176 25.3005 51.1248C24.3873 47.372 22.1519 43.716 19.0086 40.8324C18.5696 40.4292 18.0672 40.0278 17.429 39.569C12.8471 36.2768 11.606 31.6835 10.2344 25.0508C9.78842 22.8859 8.8523 21.3858 7.45253 20.5901C5.43044 19.4396 3.06105 20.1421 2.69965 20.2604C2.5833 20.5256 2.47223 20.7926 2.36646 21.0633C2.6115 20.35 2.88476 19.651 3.18446 18.9647C3.54586 18.8464 5.91525 18.1439 7.93733 19.2944C9.33711 20.0901 10.2732 21.5902 10.7192 23.7551C12.0908 30.3878 13.3319 34.9811 17.9138 38.2733C18.552 38.7321 19.0544 39.1335 19.4934 39.5367C22.6367 42.4203 24.8721 46.0763 25.7853 49.829C26.5293 52.89 26.36 55.8256 25.3287 58.0191Z" fill="white"/>
</g>
<path d="M62.5074 21.954C62.1584 19.3356 61.2751 17.1044 59.8789 15.3463C57.8515 12.7961 54.7875 11.3498 51.0184 11.1617C51.0131 11.1599 51.0078 11.1581 51.0043 11.1581C47.2827 11.047 44.1605 10.1258 41.4915 8.33902C35.7267 4.58447 30.4907 3.2995 26.0252 3.2995C20.5777 3.2995 16.2797 5.20993 13.5665 6.87663C9.03049 9.66342 5.47112 13.8409 3.27979 18.7478C3.94618 18.5561 6.12869 18.0614 8.02209 19.1367C9.46946 19.9593 10.4338 21.5006 10.8922 23.7175C12.2549 30.309 13.4872 34.8718 18.0162 38.1281C18.6597 38.5905 19.1674 38.9955 19.6116 39.4041C20.516 40.2339 21.3464 41.1282 22.0939 42.069C23.959 44.4257 25.2971 47.0799 25.9564 49.786C26.5523 52.2413 26.5664 54.6177 26.0252 56.6088C26.0146 56.6536 26.0023 56.6984 25.9899 56.7432C25.9935 56.7432 25.997 56.7414 26.0023 56.7414H26.0164C34.4944 57.2217 41.1212 56.8166 46.2725 55.503C47.1769 55.2718 48.0372 55.0119 48.857 54.727C48.857 54.7252 48.857 54.7252 48.8588 54.7252H48.8605C51.6407 53.7539 53.9431 52.4599 55.7942 50.8219C55.7995 50.8147 55.803 50.8058 55.8118 50.8004C55.8189 50.7932 55.8277 50.7879 55.8365 50.7843C57.1992 49.571 58.3187 48.1713 59.2019 46.5745C60.5188 44.1963 61.2099 41.3934 61.1993 38.4704C61.1888 35.2051 61.5643 31.999 62.317 28.9416C62.7278 26.3949 62.7877 24.0508 62.5074 21.954ZM57.8409 48.3989C57.2415 49.6516 56.1168 50.4689 54.754 50.6391C54.5918 50.6606 54.4297 50.6696 54.2675 50.6696C53.2644 50.6696 52.2859 50.2825 51.5261 49.5728C50.9108 48.9957 50.4824 48.2573 50.2815 47.4509C50.1827 47.0512 50.1387 46.6354 50.1545 46.2143C50.2744 43.1784 50.2198 40.3593 49.9871 37.7052C49.9818 37.6908 49.98 37.6765 49.9835 37.6622C49.8072 35.6747 49.5287 33.7822 49.1497 31.9613C48.6031 31.947 48.0602 31.8198 47.5701 31.5724C47.2774 31.4344 47.0165 31.2373 46.7715 31.0312C46.5317 30.8162 46.3149 30.5778 46.1192 30.3233C46.1104 30.3126 46.1121 30.2964 46.1227 30.2875C46.1333 30.2785 46.1491 30.2803 46.158 30.291C46.574 30.7678 47.0623 31.1889 47.63 31.4452C47.9121 31.5724 48.2065 31.6764 48.5132 31.7266C48.8182 31.7803 49.1267 31.7965 49.4352 31.7785C49.7438 31.757 50.0488 31.6997 50.3449 31.6101C50.6393 31.5151 50.9214 31.3861 51.1894 31.2283C51.4521 31.0671 51.7059 30.8753 51.951 30.6782C52.196 30.481 52.4322 30.2731 52.6544 30.0509C52.8783 29.8269 53.0881 29.5939 53.282 29.3448C53.4724 29.0921 53.6593 28.8376 53.7932 28.558C54.0665 27.9989 54.1705 27.3573 54.1 26.7354C54.0647 26.4218 53.9819 26.1261 53.8708 25.8232L53.5535 24.9164L52.9171 23.1027C52.8994 23.0561 52.9241 23.0042 52.9699 22.988C53.0158 22.9701 53.0651 22.9952 53.0828 23.0418L53.7192 24.8573L54.0365 25.7641C54.137 26.0329 54.2181 26.3232 54.2604 26.6154C54.8016 26.9774 55.431 27.2086 56.0762 27.2426C56.3971 27.2587 56.7232 27.2265 57.0317 27.1387C57.3385 27.0473 57.6312 26.9021 57.8833 26.705C58.3927 26.3107 58.703 25.6834 58.7471 25.0257C58.7735 24.6978 58.7436 24.3644 58.6783 24.0382C58.6096 23.7121 58.5073 23.3931 58.3822 23.083C58.3769 23.0687 58.3822 23.0544 58.3963 23.049C58.4086 23.0436 58.4227 23.049 58.428 23.0615C58.5673 23.368 58.6924 23.6852 58.7753 24.0149C58.8529 24.3465 58.8952 24.6906 58.8775 25.0347C58.8617 25.3788 58.7859 25.7229 58.636 26.0383C58.5567 26.2139 58.4509 26.3734 58.3293 26.5204C58.3275 26.5204 58.3275 26.5204 58.3275 26.5204C55.9334 31.2266 55.9423 34.8198 55.9581 38.9758C56.4482 39.802 56.866 40.6067 57.2063 41.3809C58.4456 44.2035 58.6783 46.6444 57.8409 48.3989Z" fill="#5C4D48"/>
<g opacity="0.6">
<path opacity="0.6" d="M59.8789 15.7288C57.8515 13.1786 54.7875 11.7323 51.0184 11.5441C51.0131 11.5423 51.0078 11.5405 51.0042 11.5405C47.2827 11.4294 44.1605 10.5083 41.4914 8.72148C35.7266 4.96693 30.4907 3.68196 26.0252 3.68196C20.5777 3.68196 16.2797 5.59239 13.5665 7.25909C9.03049 10.0459 5.47112 14.2234 3.27979 19.1303C3.48429 19.0711 3.83335 18.9833 4.27232 18.9224C6.48657 14.6105 9.79207 10.9473 13.8997 8.42399C16.6129 6.75729 20.9109 4.84686 26.3584 4.84686C30.8239 4.84686 36.0598 6.13183 41.8246 9.88638C44.4937 11.6732 47.6159 12.5943 51.3374 12.7054C51.341 12.7054 51.3463 12.7072 51.3516 12.709C55.1207 12.8972 58.1847 14.3435 60.2121 16.8937C61.0618 17.9636 61.7211 19.2073 62.1866 20.6088C61.73 18.727 60.9578 17.0854 59.8789 15.7288Z" fill="white"/>
</g>
<g opacity="0.3">
<path opacity="0.3" d="M62.317 28.9416C61.5642 31.999 61.1887 35.2051 61.1993 38.4704C61.2098 41.3934 60.5188 44.1963 59.2019 46.5745C58.3186 48.1713 57.1992 49.571 55.8364 50.7843C55.8276 50.7879 55.8188 50.7932 55.8117 50.8004C55.8029 50.8058 55.7994 50.8147 55.7941 50.8219C53.943 52.4599 51.6406 53.7539 48.8605 54.7252H48.8587C48.8569 54.7252 48.8569 54.7252 48.8569 54.727C48.0372 55.012 47.1769 55.2718 46.2725 55.503C41.1212 56.8166 34.4943 57.2217 26.0163 56.7414C26.0216 56.6966 26.0234 56.6518 26.0252 56.6088C26.3971 50.4348 23.9308 44.9598 19.8584 39.8791C20.5706 40.6497 21.3181 41.3809 22.0938 42.0691C30.265 49.3219 41.6695 51.8847 50.2814 47.4509C50.4824 48.2573 50.9108 48.9957 51.526 49.5728C52.2859 50.2825 53.2643 50.6696 54.2674 50.6696C54.4296 50.6696 54.5918 50.6606 54.754 50.6391C56.1167 50.4689 57.2415 49.6516 57.8409 48.3989C58.6783 46.6444 58.4456 44.2035 57.2062 41.3809C60.3813 36.9256 62.3981 30.5438 62.5056 21.9504L62.5074 21.954C62.7877 24.0508 62.7277 26.3949 62.317 28.9416Z" fill="black"/>
</g>
<path d="M57.6823 48.32C57.1111 49.5172 56.0357 50.2986 54.7329 50.4616C53.6152 50.6014 52.4886 50.2305 51.646 49.4401C50.7627 48.6139 50.2832 47.4401 50.3308 46.2214C50.4507 43.1855 50.396 40.3647 50.1633 37.7087C51.0236 36.9256 52.464 37.956 52.4781 37.9668C52.501 37.9847 52.5327 37.9883 52.5592 37.9776C54.1282 37.4041 55.1842 37.7517 55.7941 39.0457C58.0542 42.8432 58.7241 46.1372 57.6823 48.32Z" fill="#FC1515"/>
<g opacity="0.3">
<path opacity="0.3" d="M57.6823 48.32C57.1111 49.5172 56.0357 50.2986 54.7329 50.4617C53.6152 50.6014 52.4887 50.2305 51.646 49.4401C50.7628 48.6139 50.2833 47.4401 50.3309 46.2214C50.352 45.6784 50.3679 45.1408 50.3785 44.6121C50.5918 45.0243 50.8756 45.4024 51.2212 45.7268C52.0638 46.5153 53.1904 46.8863 54.3081 46.7465C55.6109 46.5834 56.6863 45.8039 57.2574 44.6067C57.469 44.1622 57.61 43.673 57.6823 43.1425C58.317 45.1981 58.3258 46.9705 57.6823 48.32Z" fill="black"/>
</g>
<g opacity="0.6">
<path opacity="0.6" d="M57.6823 48.32C57.5641 48.5691 57.4231 48.8003 57.2609 49.0118C58.1565 46.8308 57.4584 43.6318 55.2741 39.9615C54.6641 38.6675 53.6081 38.3198 52.0391 38.8933C52.0127 38.9041 51.9809 38.9005 51.958 38.8826C51.9474 38.8736 51.0254 38.2141 50.2162 38.3503C50.2004 38.1353 50.1827 37.922 50.1633 37.7087C51.0236 36.9256 52.464 37.956 52.4781 37.9668C52.501 37.9847 52.5327 37.9883 52.5592 37.9776C54.1282 37.4041 55.1842 37.7517 55.7941 39.0457C58.0542 42.8432 58.7241 46.1372 57.6823 48.32Z" fill="white"/>
</g>
<path d="M55.7799 38.6478C55.1188 37.551 54.0329 37.2625 52.5414 37.7948C52.3017 37.6281 51.0341 36.8216 50.1438 37.4937C49.9675 35.5689 49.696 33.732 49.3293 31.9613C49.3681 31.9595 49.4069 31.9613 49.4457 31.9595C49.7683 31.9362 50.0874 31.8789 50.3977 31.7857C50.7062 31.6889 51.0024 31.5527 51.2827 31.3896C51.8327 31.0455 52.3263 30.6387 52.7847 30.1835C53.0103 29.9559 53.2272 29.714 53.4229 29.4577C53.6168 29.2014 53.809 28.9362 53.9518 28.6369C54.2215 28.0831 54.3326 27.4559 54.285 26.8412C54.8209 27.1745 55.4344 27.3878 56.0673 27.4218C56.7249 27.4577 57.4159 27.2946 57.9536 26.8788C55.8169 31.2857 55.7676 34.7356 55.7799 38.6478Z" fill="black"/>
<path d="M67.8545 39.879C67.9602 38.7715 67.5477 37.741 66.7085 37.0331C65.8288 36.2947 64.653 36.0635 63.5317 36.4023C63.701 35.7768 63.9372 35.1352 64.1823 34.4685C64.4255 33.809 64.6724 33.1298 64.8663 32.438C65.1131 33.0008 65.605 33.456 66.1902 33.6316C66.5728 33.7499 66.9836 33.7642 67.3732 33.6764C67.7628 33.5904 68.1259 33.3932 68.4221 33.1208C68.4486 33.0975 68.4732 33.0725 68.4979 33.0456C68.3939 33.3682 68.341 33.7051 68.3446 34.0438C68.3446 34.87 68.7077 35.6926 69.3283 36.2338C69.9418 36.7804 70.8056 37.0385 71.6113 36.8664C71.6148 36.8664 71.6201 36.8646 71.6236 36.8628C70.1868 38.1872 68.9863 39.241 67.8545 39.879Z" fill="black"/>
<path d="M67.6658 39.9794C67.3467 40.1479 67.0311 40.2841 66.7173 40.3808C65.8535 40.6461 64.9279 40.4579 64.2404 39.8755C63.5564 39.2948 63.2091 38.4077 63.3113 37.5009C63.3448 37.2052 63.4048 36.9077 63.4806 36.6048C64.5753 36.2392 65.7371 36.4489 66.5957 37.1711C67.419 37.8665 67.8068 38.888 67.6658 39.9794Z" fill="#FC1515"/>
<path d="M49.2924 77.0002C47.7826 77.0002 46.2831 76.8547 44.8202 76.5622C37.2985 75.0589 28.9788 70.9252 19.386 63.9247C12.3977 58.7999 7.23544 53.1514 4.04099 47.1358C0.841264 41.111 -0.468246 34.5664 0.148077 27.6835C0.949508 18.7346 5.81239 10.6986 13.1564 6.18669C17.1731 3.7189 21.4909 2.46762 25.991 2.46762C26.0206 2.46762 26.0499 2.46762 26.0795 2.46762C31.3306 2.48698 36.6599 4.2336 41.9205 7.65983C44.7081 9.52618 48.0189 10.4165 52.0426 10.3628C52.6487 10.3556 53.2368 10.1982 53.7435 9.90647C58.643 7.08778 64.5757 5.26337 70.02 4.90064C77.0301 4.43325 83.096 6.37379 87.558 10.5115C97.318 19.4493 99.5442 33.1818 93.3651 46.3469C91.1262 51.1166 87.9367 55.4367 83.8844 59.188C74.7281 67.6638 65.3351 73.3367 55.9669 76.0482C53.7798 76.6816 51.5254 77.0002 49.2924 77.0002ZM25.9405 3.92679C21.7493 3.92679 17.6748 5.08595 13.8859 7.41359C6.9241 11.6911 2.31367 19.3167 1.55243 27.8133C0.366681 41.054 6.6438 52.8123 20.2096 62.7609C29.6336 69.6381 37.773 73.6926 45.092 75.1554C48.5012 75.8364 52.1283 75.669 55.5805 74.6697C64.7375 72.0191 73.9407 66.4538 82.9349 58.1282C86.8514 54.5026 89.9327 50.3312 92.0923 45.7301C97.9918 33.161 95.8914 20.0733 86.611 11.5746C76.6469 2.33429 61.2095 7.25983 54.4381 11.1552C53.7248 11.5656 52.9019 11.7875 52.0585 11.7975C51.9534 11.7986 51.848 11.7993 51.7436 11.7993C47.5679 11.7993 44.1009 10.8377 41.1519 8.86344C36.1085 5.57736 30.9417 3.92679 25.9405 3.92679ZM55.7737 75.359H55.7754H55.7737Z" fill="black"/>
<path d="M32.4776 57.6532C30.4354 57.6532 28.267 57.5876 25.9629 57.4571C25.6226 57.4378 25.3621 57.1421 25.3811 56.7962C25.3998 56.4499 25.6886 56.1808 26.0313 56.2048C34.462 56.6815 41.0406 56.2815 46.1432 54.9807C52.2532 53.423 56.3742 50.5871 58.7412 46.3107C60.0129 44.0128 60.6804 41.3024 60.6705 38.4718C60.6589 35.1714 61.0379 31.9298 61.797 28.8365C62.6898 23.2723 61.8845 18.7249 59.4682 15.6847C57.5385 13.257 54.6074 11.8782 50.992 11.6979C50.6518 11.681 50.3894 11.3864 50.406 11.0405C50.4226 10.6946 50.7089 10.4258 51.0526 10.4448C55.0291 10.6434 58.2712 12.1825 60.4283 14.8961C63.0755 18.2267 63.9686 23.126 63.011 29.0645C63.0082 29.0813 63.0047 29.0985 63.0008 29.1154C62.2625 32.1154 61.8936 35.2617 61.9049 38.4672C61.9155 41.5145 61.1934 44.4393 59.8169 46.9261C57.2748 51.5187 52.9006 54.5513 46.444 56.1976C42.6258 57.1707 38.0196 57.6528 32.4776 57.6532ZM62.4017 28.9631H62.4035H62.4017Z" fill="black"/>
<path d="M76.2966 58.9637C74.3662 58.9637 72.3085 58.764 70.1676 58.3586C63.9247 57.1762 58.1313 54.3987 55.4083 51.2832C55.1819 51.0241 55.2048 50.6276 55.4597 50.3975C55.7147 50.1674 56.1046 50.1907 56.331 50.4499C58.8834 53.3704 64.4038 55.9905 70.3939 57.1256C77.0064 58.3783 82.7345 57.6074 86.1102 55.0109C86.382 54.8016 86.7688 54.8564 86.9747 55.1324C87.1803 55.4087 87.1267 55.8023 86.8552 56.0113C84.3271 57.955 80.6348 58.9637 76.2966 58.9637Z" fill="black"/>
<path d="M74.0018 60.4138C72.6944 60.6995 71.3743 60.9332 70.044 61.107C69.379 61.1949 68.7112 61.2712 68.041 61.3239C67.706 61.3547 67.3707 61.3805 67.0343 61.3984C66.6983 61.4203 66.3616 61.4357 66.0245 61.4447C64.6766 61.4956 63.3202 61.4619 61.9669 61.33C60.6148 61.1938 59.2647 60.9457 57.9534 60.5432H57.9531L57.939 60.5393C57.7281 60.478 57.5747 60.3103 57.5187 60.1106C57.3575 59.5307 56.9873 59.0253 56.4891 58.6758C55.9927 58.3249 55.3771 58.1299 54.7664 58.1253C54.155 58.1188 53.5521 58.3056 53.069 58.6672C52.5818 59.026 52.2225 59.5576 51.9891 60.1615V60.1619L52.03 59.9375V66.6878L51.9718 66.4218C52.4548 67.4498 53.3398 68.3122 54.3486 68.9789C55.3608 69.6509 56.4994 70.1549 57.6763 70.5262C58.855 70.8976 60.0806 71.1295 61.3122 71.2277C62.5431 71.3241 63.7849 71.2854 64.9865 71.0685L64.9886 71.0682C65.3243 71.0076 65.6444 71.2352 65.704 71.5761C65.7636 71.9173 65.54 72.2427 65.2044 72.3033C63.8808 72.542 62.5399 72.5818 61.2166 72.4786C59.893 72.3728 58.5828 72.1248 57.3128 71.7252C56.0442 71.3244 54.808 70.7818 53.672 70.0284C53.106 69.6495 52.5627 69.2208 52.0786 68.7118C51.5952 68.204 51.1665 67.6194 50.8541 66.9537C50.8149 66.8706 50.7963 66.7824 50.7959 66.6957V66.6882V59.9378V59.9188C50.7959 59.8468 50.8111 59.7758 50.8368 59.7131V59.7127C51.1358 58.9296 51.6329 58.1758 52.3416 57.6539C53.0443 57.1281 53.9195 56.8611 54.7759 56.8711C55.6334 56.8786 56.4828 57.145 57.1939 57.646C57.9055 58.1418 58.4671 58.902 58.7051 59.7644L58.2711 59.3317H58.2715C59.5344 59.6188 60.8154 59.8267 62.109 59.9751C63.4023 60.1275 64.709 60.2067 66.022 60.2504C66.3503 60.2626 66.6789 60.269 67.0079 60.2687C67.3368 60.2737 67.6661 60.278 67.9958 60.2733C68.3255 60.273 68.6555 60.2701 68.9855 60.2608C69.3159 60.2554 69.6466 60.2518 69.977 60.2382C71.2996 60.1981 72.6256 60.1325 73.956 60.059C74.0533 60.0533 74.1368 60.1292 74.1425 60.2285C74.1464 60.3174 74.0854 60.3952 74.0018 60.4138Z" fill="black"/>
<path d="M58.7276 59.9006C58.71 60.2823 58.6789 60.6386 58.6416 61.0049C58.6035 61.3683 58.5577 61.7307 58.5016 62.0916C58.3866 62.8124 58.2372 63.5325 57.9886 64.2243C57.9551 64.3178 57.8535 64.3659 57.7615 64.3315C57.6815 64.3017 57.6356 64.2196 57.6469 64.1372L57.6476 64.1329C57.7432 63.4451 57.7432 62.744 57.7097 62.0468C57.6913 61.6977 57.6635 61.349 57.6282 61.0017C57.5923 60.6572 57.5492 60.302 57.496 59.9737C57.4399 59.6303 57.6684 59.3052 58.0066 59.2482C58.3443 59.1912 58.6641 59.4238 58.7202 59.7672C58.7273 59.8109 58.7294 59.8583 58.7276 59.9006Z" fill="black"/>
<path d="M55.0978 60.4747C54.8608 60.3077 54.6115 60.136 54.3249 60.0532C54.0425 59.9593 53.7354 59.9038 53.4166 59.9178C53.0989 59.9256 52.7714 59.9808 52.4502 60.079C52.1318 60.1769 51.8064 60.3174 51.5232 60.488L51.5112 60.4952C51.4273 60.5457 51.3194 60.5174 51.2697 60.4321C51.2263 60.3575 51.2422 60.2647 51.3025 60.2084C51.5881 59.9428 51.891 59.731 52.2259 59.5432C52.5598 59.3586 52.9223 59.212 53.3091 59.1188C53.6948 59.0202 54.1102 58.998 54.5245 59.0432C54.9451 59.0769 55.3456 59.2274 55.7342 59.4002C56.0487 59.5403 56.1918 59.9127 56.0543 60.2324C55.9168 60.5522 55.5501 60.6977 55.2356 60.5579C55.1993 60.5418 55.1651 60.5224 55.1334 60.5002L55.0978 60.4747Z" fill="black"/>
<path d="M51.2964 62.2472C51.9917 62.0246 52.7547 61.926 53.4867 62.0648C53.8512 62.1332 54.2024 62.2623 54.5183 62.4411C54.8325 62.6264 55.1036 62.8616 55.3413 63.1164C55.4086 63.1884 55.4058 63.3024 55.3349 63.3705C55.2739 63.4293 55.1826 63.4354 55.1153 63.3899L55.1068 63.3841C54.8448 63.2074 54.5712 63.0644 54.2867 62.9741C53.9997 62.8902 53.7077 62.8555 53.4193 62.8684C53.1309 62.8805 52.8464 62.9393 52.5721 63.0318C52.297 63.1239 52.0351 63.2497 51.7798 63.401C51.4829 63.5766 51.1025 63.4748 50.9293 63.173C50.7566 62.8712 50.8567 62.4845 51.1536 62.3085C51.1934 62.2852 51.2347 62.2662 51.277 62.2526L51.2964 62.2472Z" fill="black"/>
<path d="M33.6089 71.1807C35.1321 71.6614 36.7367 71.8918 38.3452 71.9191C39.9551 71.9431 41.571 71.7571 43.1408 71.3872C44.7073 71.0137 46.2379 70.4517 47.6161 69.6502C48.303 69.2488 48.95 68.7857 49.5148 68.2516C50.0843 67.7222 50.5451 67.1018 50.848 66.4355L50.7958 66.6882V59.9379L50.8733 60.2422L50.873 60.2418C50.5342 59.6339 50.1065 59.0898 49.5709 58.7371C49.0413 58.3787 48.4155 58.2077 47.7727 58.2475C47.131 58.283 46.4836 58.511 45.9082 58.8679C45.3324 59.2249 44.8237 59.7099 44.4439 60.2705L44.4319 60.288C44.3533 60.4042 44.2394 60.4816 44.1153 60.5156C42.0206 61.0895 39.8419 61.2479 37.7194 61.0619C35.5936 60.8784 33.5232 60.3651 31.541 59.654C31.4493 59.621 31.401 59.5185 31.4334 59.4253C31.4645 59.3361 31.559 59.2877 31.6471 59.3124C33.6505 59.8741 35.7072 60.2271 37.7589 60.2569C39.8084 60.2895 41.8485 59.9873 43.7539 59.3163L43.4253 59.5619C43.9112 58.8457 44.5402 58.2479 45.2651 57.7973C45.9893 57.3493 46.8225 57.045 47.7064 56.9952C48.1468 56.9711 48.5977 57.0113 49.0314 57.131C49.4651 57.2489 49.8794 57.4414 50.2496 57.6905C50.9989 58.1884 51.5422 58.8988 51.9512 59.6336L51.9516 59.6343C52.0037 59.7239 52.0288 59.8224 52.0291 59.9196V59.9382V66.6885V66.6975C52.0291 66.7835 52.0097 66.8674 51.9769 66.9408C51.5845 67.8111 51.0123 68.5559 50.3579 69.1674C49.7049 69.7846 48.9828 70.2982 48.2293 70.7388C46.7188 71.6158 45.0874 72.2105 43.4211 72.6087C41.753 73.0019 40.0415 73.1987 38.3265 73.1736C36.6129 73.1445 34.893 72.8997 33.2387 72.3779C32.9132 72.275 32.7313 71.9237 32.8325 71.5929C32.9333 71.2621 33.2792 71.0771 33.6047 71.18L33.6089 71.1807Z" fill="black"/>
<path d="M44.61 60.0937C44.537 60.3371 44.4704 60.6264 44.4101 60.8998C44.3495 61.1776 44.2941 61.4586 44.2423 61.7407C44.1397 62.306 44.0522 62.8769 43.9789 63.4519C43.9662 63.5508 43.8773 63.6207 43.78 63.6081C43.6982 63.5974 43.6365 63.5314 43.6263 63.4519C43.5526 62.8712 43.4934 62.287 43.4497 61.6977C43.4285 61.4031 43.4112 61.1074 43.3999 60.8095C43.3901 60.5074 43.3805 60.2213 43.3918 59.893V59.8876C43.4035 59.5382 43.6915 59.2647 44.0353 59.2765C44.3791 59.2884 44.6481 59.5812 44.6365 59.9307C44.6347 59.9866 44.6248 60.0428 44.61 60.0937Z" fill="black"/>
<path d="M51.001 61.0117C50.7274 60.7214 50.3988 60.4873 50.0226 60.345C49.6478 60.202 49.2275 60.1519 48.8083 60.2042C48.3894 60.2562 47.9723 60.4085 47.613 60.6562C47.2548 60.9028 46.9533 61.2486 46.7929 61.6687L46.7911 61.6737C46.7555 61.7662 46.6532 61.8121 46.5626 61.7763C46.4805 61.7436 46.4357 61.6555 46.454 61.5705C46.5665 61.0465 46.8641 60.5709 47.2523 60.2042C47.6415 59.8361 48.1218 59.5662 48.6443 59.4153C49.1665 59.264 49.7352 59.2357 50.2888 59.3504C50.843 59.4629 51.3723 59.7225 51.8243 60.0766L51.8261 60.0777C52.0968 60.2898 52.1473 60.6848 51.9385 60.9601C51.7301 61.2354 51.3416 61.2866 51.0708 61.0744C51.0461 61.0562 51.0218 61.0332 51.001 61.0117Z" fill="black"/>
<path d="M47.8391 63.9153C48.0503 63.6874 48.2862 63.4705 48.5598 63.2884C48.8323 63.106 49.1461 62.9608 49.4846 62.8823C49.822 62.8028 50.1803 62.7848 50.5258 62.8268C50.872 62.868 51.2059 62.9597 51.5268 63.0762L51.5293 63.077C51.8526 63.1942 52.0215 63.5558 51.9062 63.8845C51.7909 64.2135 51.4355 64.3852 51.1118 64.268C51.0635 64.2504 51.0159 64.2254 50.9747 64.1981C50.7617 64.0533 50.5403 63.9253 50.3076 63.8332C50.0752 63.7404 49.8326 63.6899 49.5816 63.6827C49.3309 63.6752 49.0721 63.7189 48.8165 63.8092C48.5605 63.8985 48.3091 64.0314 48.0655 64.1899L48.0633 64.1913C47.9808 64.2447 47.8708 64.2203 47.8183 64.1365C47.7742 64.0648 47.7845 63.9737 47.8391 63.9153Z" fill="black"/>
<path d="M19.9881 62.3096C18.9409 62.3096 17.8144 62.0913 16.6329 61.6472C16.3131 61.5271 16.1498 61.1662 16.268 60.8415C16.3861 60.5164 16.7418 60.3504 17.0606 60.4705C20.3481 61.7053 22.9989 60.9723 24.5256 58.407C27.0303 54.198 25.6828 45.939 19.1387 39.9353C18.7163 39.5475 18.2301 39.159 17.6085 38.7124C12.88 35.3141 11.5563 30.4151 10.2028 23.8648C9.78917 21.8637 8.94261 20.4851 7.68669 19.7672C5.72137 18.6446 3.33718 19.4783 3.3132 19.4869C2.99199 19.6016 2.63976 19.4317 2.52587 19.1059C2.41199 18.7801 2.57806 18.422 2.89856 18.3055C3.01667 18.2625 5.81974 17.2682 8.28116 18.6676C9.86709 19.569 10.9199 21.2307 11.4107 23.6067C12.7474 30.0731 13.9501 34.5463 18.3214 37.688C18.9839 38.1643 19.5065 38.5823 19.9659 39.0038C27.0716 45.5225 28.4012 54.3184 25.5819 59.0561C24.3066 61.1985 22.3494 62.3096 19.9881 62.3096Z" fill="black"/>
<path d="M50.2134 59.0644C49.963 59.0644 49.7271 58.9081 49.6348 58.655L48.3104 55.0274C48.192 54.7026 48.3545 54.3417 48.6743 54.2209C48.993 54.1001 49.3488 54.2657 49.4676 54.5908L50.792 58.2185C50.9104 58.5432 50.7479 58.9041 50.4281 59.0249C50.3572 59.0518 50.2846 59.0644 50.2134 59.0644Z" fill="black"/>
<path d="M52.7951 76.6425C52.7916 76.6425 52.7877 76.6425 52.7842 76.6425C52.4436 76.6364 52.1721 76.3507 52.1781 76.0044C52.2648 70.9646 51.4514 67.9118 51.4437 67.8814C51.3527 67.5473 51.5456 67.2018 51.8738 67.1097C52.2028 67.0165 52.5423 67.2132 52.6329 67.5469C52.6685 67.6778 53.5021 70.8065 53.4118 76.0263C53.4058 76.369 53.1308 76.6425 52.7951 76.6425Z" fill="black"/>
<path d="M96.0285 34.7671C95.867 34.7671 95.7048 34.7112 95.5722 34.5962C95.2754 34.3399 95.2394 33.8872 95.4918 33.5857C99.5695 28.7104 101.134 25.5096 100.414 23.5124C99.817 21.8547 97.4462 20.6984 93.1662 19.9783C92.7819 19.9134 92.522 19.5446 92.5858 19.1539C92.6493 18.7636 93.0131 18.5002 93.3968 18.564C98.3566 19.3987 100.929 20.773 101.739 23.0196C102.676 25.6214 101.129 29.0595 96.5662 34.5144C96.4262 34.6815 96.228 34.7671 96.0285 34.7671Z" fill="black"/>
<path d="M96.1276 29.8889C96.0057 29.8889 95.8837 29.8462 95.7839 29.7595C95.5621 29.5663 95.536 29.2269 95.726 29.0014C96.5366 28.0394 98.435 25.7867 98.0919 24.9881C97.9523 24.6626 97.2961 24.2555 94.9645 24.1626C94.6725 24.1508 94.4451 23.901 94.4567 23.6042C94.4684 23.3074 94.7155 23.0769 95.0061 23.088C97.4481 23.1852 98.661 23.625 99.0615 24.5576C99.5728 25.7483 98.5661 27.2835 96.5296 29.7007C96.4252 29.8251 96.2768 29.8889 96.1276 29.8889Z" fill="black"/>
<path d="M62.1002 7.82144C61.9676 7.82144 61.8333 7.78344 61.7138 7.70387C61.3883 7.48667 61.2974 7.04221 61.5114 6.71102C64.3832 2.2647 66.144 0.127029 68.3826 0.00552153C70.3317 -0.102724 72.3143 1.36684 75.4432 5.23967C75.6903 5.54577 75.647 5.99739 75.3458 6.24865C75.0451 6.49955 74.6005 6.45582 74.3533 6.14972C71.6229 2.77009 69.8568 1.36003 68.4577 1.43709C66.8432 1.52455 65.185 3.63462 62.6901 7.49778C62.5547 7.70782 62.3298 7.82144 62.1002 7.82144Z" fill="black"/>
<path d="M65.9811 6.68489C65.8694 6.68489 65.7565 6.64904 65.661 6.57485C65.4286 6.39492 65.3839 6.05763 65.5609 5.82143C65.6807 5.66157 65.7943 5.50852 65.9018 5.36335C66.8393 4.10025 67.4049 3.33787 68.2691 3.28195C69.117 3.22604 69.9435 3.91422 71.1793 5.20099C71.3835 5.41318 71.3792 5.75368 71.1705 5.96122C70.9618 6.16875 70.6268 6.1648 70.4227 5.95225C69.648 5.14579 68.7944 4.32642 68.3364 4.35509C67.9567 4.37982 67.449 5.06407 66.7463 6.01104C66.6373 6.15763 66.5231 6.31176 66.4018 6.47341C66.2981 6.61177 66.1405 6.68489 65.9811 6.68489Z" fill="black"/>
<path d="M43.9349 9.9387C43.5484 10.0416 43.1705 10.114 42.8077 10.2201C42.4455 10.3222 42.0958 10.4319 41.7714 10.567C41.1177 10.8312 40.5874 11.2025 40.2718 11.6717C39.9577 12.1398 39.8258 12.7495 39.8607 13.4477C39.8896 14.1438 40.067 14.8847 40.2644 15.6603L40.2666 15.6696C40.3166 15.8657 40.2003 16.0657 40.0078 16.1166C39.8699 16.1528 39.7303 16.103 39.6435 16.0005C39.0928 15.3478 38.67 14.5581 38.4722 13.6449C38.376 13.1889 38.3414 12.699 38.4144 12.1979C38.4885 11.699 38.6697 11.1918 38.9648 10.7595C39.2606 10.328 39.6499 9.97741 40.0677 9.72651C40.4859 9.4731 40.9298 9.31253 41.368 9.21288C42.2488 9.01897 43.1141 9.04406 43.9349 9.2222C44.1295 9.2645 44.2536 9.45913 44.212 9.65698C44.1827 9.79677 44.0787 9.90071 43.9515 9.93476L43.9349 9.9387Z" fill="black"/>
<path d="M26.002 30.4366C25.4435 29.4448 25.0588 28.2899 25.0853 27.0354C25.1004 26.4132 25.2214 25.7691 25.4851 25.1691C25.7488 24.5701 26.1518 24.0264 26.6419 23.597C26.759 23.4823 26.8958 23.3952 27.0241 23.2959C27.156 23.2031 27.2946 23.1221 27.4307 23.0375C27.7117 22.887 28.0008 22.7554 28.297 22.6576C28.8904 22.4626 29.5014 22.3708 30.1008 22.3723C31.3007 22.3733 32.4522 22.7077 33.4374 23.2809C33.6084 23.3805 33.6679 23.602 33.5699 23.7762C33.4931 23.9128 33.3422 23.9791 33.1979 23.9536L33.1898 23.9522C32.1529 23.7648 31.1395 23.6766 30.1798 23.7984C29.2268 23.9203 28.3287 24.2436 27.6736 24.8207C27.3446 25.106 27.0749 25.4487 26.8708 25.8393C26.6712 26.2325 26.539 26.6741 26.4713 27.1447C26.4025 27.6154 26.3934 28.1129 26.4346 28.6215C26.4727 29.1315 26.5665 29.6466 26.6606 30.1778L26.6631 30.1925C26.698 30.3896 26.569 30.5778 26.3754 30.6133C26.222 30.6412 26.075 30.5656 26.002 30.4366Z" fill="black"/>
<path d="M60.833 17.0385C61.6426 16.8105 62.499 16.7797 63.3636 16.9514C63.4718 16.9686 63.579 16.998 63.6862 17.0313C63.7941 17.0614 63.9002 17.0976 64.0077 17.1317C64.2225 17.2012 64.4277 17.3123 64.6371 17.4087C64.7397 17.4632 64.8377 17.5299 64.9361 17.594C65.0331 17.6614 65.136 17.7191 65.2273 17.7958C65.3194 17.8722 65.4086 17.9525 65.4974 18.0327L65.6304 18.1535C65.673 18.1958 65.7104 18.2431 65.7502 18.2883C65.9075 18.4715 66.064 18.6561 66.1822 18.8654C66.2456 18.9675 66.3045 19.0722 66.3648 19.1754C66.4145 19.2833 66.4607 19.3919 66.5065 19.5012C66.5485 19.6116 66.5993 19.7195 66.6317 19.831C66.6627 19.9428 66.6927 20.0546 66.7195 20.1672C66.7435 20.2797 66.7812 20.3908 66.7928 20.5034L66.8306 20.8403C66.9106 21.7364 66.777 22.602 66.4558 23.3931C66.417 23.4891 66.3087 23.5346 66.2142 23.4952C66.1585 23.4719 66.1201 23.4242 66.106 23.369L66.1042 23.3622C65.8997 22.5515 65.758 21.7941 65.5256 21.112C65.2972 20.4292 64.9922 19.846 64.5775 19.3718C64.1675 18.8926 63.6146 18.5249 62.9666 18.222C62.3203 17.9109 61.5915 17.6833 60.8218 17.3972L60.8182 17.3962C60.7227 17.3607 60.6733 17.2528 60.7082 17.1557C60.7297 17.0965 60.778 17.0546 60.833 17.0385Z" fill="black"/>
<path d="M79.8958 32.9363C80.9321 32.5803 82.0156 32.3854 83.1453 32.3965C83.7094 32.4065 84.2873 32.4674 84.8677 32.6309C85.4459 32.7947 86.0326 33.0682 86.5456 33.4972C87.0498 33.9352 87.4518 34.5348 87.6397 35.1686C87.8315 35.8019 87.8654 36.4381 87.8029 37.0317C87.6746 38.2224 87.2476 39.2794 86.6613 40.222C86.608 40.3081 86.4959 40.3335 86.4116 40.2794C86.3535 40.2421 86.3235 40.1765 86.3277 40.1113L86.3281 40.1045C86.3654 39.555 86.4328 39.0278 86.4631 38.507C86.4949 37.9883 86.5104 37.4815 86.4755 37.0012C86.4388 36.5216 86.357 36.0714 86.2001 35.6872C86.1634 35.5901 86.1148 35.5019 86.0732 35.4105C86.0178 35.3284 85.9776 35.2367 85.9138 35.1625C85.8105 34.9961 85.6642 34.8646 85.5224 34.7277C85.2185 34.47 84.8373 34.2635 84.4093 34.1001C83.9802 33.9388 83.5077 33.8216 83.0198 33.727C82.0399 33.533 80.9991 33.4499 79.9304 33.2929L79.9279 33.2925C79.8288 33.2778 79.7604 33.1846 79.7745 33.0843C79.7848 33.0137 79.8334 32.9581 79.8958 32.9363Z" fill="black"/>
<path d="M46.8265 22.8776C46.7623 20.1321 50.7324 17.5772 53.6117 17.8926C54.2907 17.9668 54.8228 18.5317 54.8436 19.2256C54.8778 20.3815 54.7509 21.4253 54.3923 22.3085C53.9396 23.4232 52.9456 24.1927 51.7831 24.4336C50.5307 24.6931 49.2089 24.5795 47.8356 24.1902C47.252 24.0246 46.8406 23.4927 46.8265 22.8776Z" fill="black"/>
<path d="M53.193 19.4765C53.5209 20.041 52.8062 20.6973 51.8035 21.2991C50.8007 21.9009 49.8903 22.2206 49.5624 21.6557C49.2345 21.0912 49.9404 20.4192 50.9428 19.8173C51.9452 19.2155 52.8651 18.9116 53.193 19.4765Z" fill="white"/>
<path d="M53.5802 22.8615L54.2166 24.6762L54.535 25.5834C54.5833 25.7232 54.6521 25.9103 54.6965 26.0942C54.7458 26.2773 54.7762 26.4648 54.8005 26.653C54.8862 27.4075 54.7592 28.1885 54.4264 28.8763C54.345 29.0466 54.2452 29.2183 54.145 29.3681C54.0484 29.5132 53.9479 29.6555 53.8439 29.7946C53.6348 30.072 53.4078 30.3333 53.1698 30.5817C52.9314 30.8298 52.6786 31.0606 52.4181 31.2789C52.1487 31.4964 51.9033 31.6918 51.574 31.8918C51.2556 32.0796 50.9164 32.2301 50.5628 32.3341C50.2091 32.437 49.8431 32.4882 49.4775 32.5026C48.7459 32.5183 48.0072 32.338 47.3912 31.9556C47.3151 31.9061 47.2389 31.8585 47.1649 31.8076L46.9523 31.6427C46.8183 31.5255 46.6878 31.3986 46.5725 31.2721C46.3465 31.0097 46.1494 30.7283 46.0024 30.4219C45.9583 30.3305 45.9957 30.2201 46.0859 30.1753C46.148 30.1444 46.2189 30.153 46.2714 30.1914L46.2739 30.1932C46.5299 30.381 46.7767 30.5602 47.0355 30.7097C47.0986 30.7502 47.1635 30.7824 47.2269 30.8151C47.2918 30.8462 47.3507 30.885 47.4184 30.909L47.6102 30.9946L47.8073 31.0635C48.3323 31.2369 48.8742 31.2878 49.4034 31.2351C49.6682 31.2054 49.9263 31.1409 50.1788 31.062C50.4288 30.9742 50.6678 30.8595 50.8974 30.7272C51.1089 30.5946 51.3733 30.409 51.5997 30.2287C51.8335 30.0473 52.0584 29.8566 52.2693 29.653C52.4801 29.4494 52.6793 29.2351 52.8599 29.0071C52.9505 28.8935 53.0383 28.7774 53.119 28.657C53.1973 28.5419 53.2586 28.4372 53.3175 28.3193C53.5463 27.8552 53.6324 27.3186 53.5742 26.7967C53.5566 26.667 53.5365 26.5365 53.5016 26.41C53.4709 26.282 53.4282 26.1669 53.3722 26.0042L53.0541 25.097L52.4177 23.2823C52.3031 22.9561 52.4706 22.597 52.7918 22.4809C53.113 22.3647 53.466 22.535 53.5802 22.8615Z" fill="black"/>
<path d="M54.5505 26.1666C55.0216 26.4813 55.5624 26.677 56.1026 26.7053C56.3716 26.7196 56.6406 26.6938 56.8864 26.6128C57.1318 26.5311 57.3479 26.4031 57.5397 26.2594C57.7312 26.1142 57.9078 25.9494 58.0432 25.7368C58.1762 25.5253 58.2784 25.2759 58.332 24.9981C58.3902 24.7207 58.4018 24.4185 58.3856 24.1063C58.3637 23.7934 58.308 23.4744 58.2446 23.1454L58.2432 23.1382C58.2241 23.0393 58.2876 22.9436 58.3849 22.9242C58.4568 22.9099 58.5266 22.9414 58.5661 22.9984C58.9642 23.5737 59.2632 24.268 59.2932 25.0622C59.3048 25.4558 59.2459 25.8734 59.0837 26.2659C58.9286 26.6601 58.6687 27.0246 58.3373 27.2931C58.0069 27.5648 57.6166 27.7379 57.2249 27.8401C56.831 27.9397 56.4319 27.9781 56.0395 27.9576C55.2532 27.9161 54.5047 27.6372 53.8697 27.2121C53.5851 27.0218 53.5061 26.6325 53.6934 26.3433C53.8809 26.054 54.2635 25.9737 54.548 26.1641L54.5505 26.1666Z" fill="black"/>
<path d="M54.2674 51.2079C53.1313 51.2079 52.026 50.7706 51.1678 49.9678C50.1319 48.9982 49.5698 47.6226 49.6266 46.1928C49.7451 43.1945 49.6918 40.4092 49.463 37.7887C49.4563 37.7514 49.4531 37.7138 49.4531 37.6761C49.2765 35.699 48.9993 33.8158 48.6203 32.0061C48.5494 31.6674 48.7621 31.3341 49.0956 31.262C49.4288 31.1911 49.7567 31.4061 49.8276 31.7452C50.1629 33.3467 50.4203 35.0023 50.6008 36.7263C51.319 36.5991 52.082 36.884 52.6155 37.2041C54.8184 36.5209 55.8935 37.6174 56.4125 38.7002C58.7879 42.7027 59.4645 46.2301 58.3165 48.6337C57.6384 50.0538 56.3631 50.9792 54.8184 51.1732C54.6348 51.1965 54.4503 51.2079 54.2674 51.2079ZM50.7186 37.9919C50.9298 40.574 50.9756 43.3099 50.8596 46.243C50.8176 47.3036 51.2344 48.3251 52.0037 49.0444C52.7438 49.7369 53.6888 50.052 54.6675 49.928C55.7891 49.7871 56.7147 49.1154 57.2065 48.0853C57.7633 46.9193 58.2615 44.2307 55.3413 39.3235C55.3311 39.3059 55.3212 39.288 55.3128 39.2694C54.9697 38.5403 54.3964 37.8772 52.7378 38.4837C52.5471 38.5536 52.3341 38.5235 52.1691 38.403C52.161 38.3973 51.2852 37.7966 50.7186 37.9919Z" fill="black"/>
<path d="M55.8696 39.6263C55.5297 39.6263 55.2536 39.3471 55.2525 39.0012C55.2377 34.9191 55.2233 31.0631 57.702 26.1913C57.8585 25.8838 58.2308 25.763 58.5334 25.9225C58.8362 26.0817 58.9547 26.4602 58.7978 26.7677C56.4584 31.3663 56.4711 34.9022 56.4862 38.9969C56.4873 39.3432 56.2123 39.6253 55.8713 39.6263C55.871 39.6263 55.8703 39.6263 55.8696 39.6263Z" fill="black"/>
<path d="M53.0431 37.5471C53.1605 37.7672 53.2448 37.9571 53.3351 38.1621C53.4218 38.3643 53.5032 38.5672 53.5794 38.7715C53.7324 39.1797 53.8647 39.5937 53.9761 40.0124C54.0892 40.4303 54.1816 40.8529 54.2486 41.2787C54.3227 41.7027 54.3583 42.1328 54.3844 42.5594C54.3907 42.6583 54.3167 42.7436 54.2194 42.7497C54.1326 42.7554 54.0568 42.6963 54.0367 42.6135L54.035 42.6063C53.9376 42.2045 53.8336 41.8078 53.6933 41.4224C53.5604 41.0357 53.4045 40.6583 53.2314 40.2905C53.06 39.9224 52.8711 39.5636 52.6659 39.2174C52.5632 39.0442 52.4571 38.874 52.3478 38.708C52.2396 38.546 52.1197 38.3722 52.0143 38.2396C51.7988 37.969 51.8401 37.5722 52.1063 37.3535C52.3721 37.1345 52.7625 37.1765 52.9779 37.4467C53.0015 37.4765 53.022 37.5077 53.0396 37.5399L53.0431 37.5471Z" fill="black"/>
<path d="M69.41 27.1674C70.9476 27.0487 73.836 29.6333 73.9129 31.1979C73.9312 31.5714 73.6184 31.8764 73.2507 31.876L70.832 31.8757C69.9829 31.8757 69.2654 31.2362 69.1536 30.381L68.8328 27.9244C68.7841 27.5523 69.0422 27.1957 69.41 27.1674Z" fill="black"/>
<path d="M72.174 30.129C72.0329 30.2978 71.5305 30.0989 71.0517 29.6849C70.5732 29.2709 70.2996 28.7989 70.4406 28.6301C70.5817 28.4612 71.0122 28.7462 71.491 29.1598C71.9698 29.5738 72.315 29.9602 72.174 30.129Z" fill="white"/>
<path d="M70.292 31.619L69.5837 32.5416L69.2293 33.0029C69.1673 33.0825 69.1218 33.1485 69.0322 33.2499C68.9526 33.3445 68.8711 33.4377 68.777 33.5183C68.4138 33.8531 67.966 34.094 67.489 34.2012C67.0116 34.3087 66.5074 34.2911 66.0321 34.1467C65.5586 34.0044 65.1034 33.7302 64.7765 33.3402C64.4447 32.9596 64.2621 32.4549 64.2275 31.957C64.1909 31.4581 64.3097 30.971 64.5212 30.5738C64.7346 30.1742 65.0209 29.847 65.3505 29.5975C65.4309 29.5366 65.5445 29.5534 65.6044 29.6351C65.6453 29.691 65.6502 29.7627 65.6238 29.8219L65.622 29.8254C65.463 30.1767 65.3407 30.523 65.2899 30.8566C65.2324 31.1886 65.2564 31.5033 65.3424 31.7742C65.3809 31.9115 65.4464 32.0362 65.518 32.1527C65.5896 32.2681 65.6686 32.3836 65.7595 32.4811C65.9316 32.6814 66.1368 32.8631 66.3995 32.9456C66.6586 33.028 66.9453 33.0363 67.2175 32.9768C67.4904 32.9162 67.7425 32.7775 67.947 32.5893C68.1205 32.4345 68.3786 32.0624 68.6109 31.7689L69.3193 30.8463C69.5287 30.5731 69.9165 30.5247 70.1852 30.7377C70.4539 30.9506 70.5018 31.3459 70.292 31.619Z" fill="black"/>
<path d="M69.7696 32.2968C69.6225 32.4567 69.5404 32.5696 69.4431 32.6957L69.3218 32.8972C69.2844 32.966 69.2572 33.0398 69.223 33.1104C69.1053 33.4011 69.0453 33.7165 69.0485 34.033C69.0499 34.6657 69.3228 35.2997 69.7974 35.6793C70.0333 35.8668 70.3097 36.0073 70.5995 36.0854C70.8866 36.1678 71.1764 36.2019 71.4771 36.1808C71.7779 36.1582 72.0864 36.0671 72.4034 35.9252C72.72 35.7804 73.0299 35.5707 73.3575 35.3374L73.3617 35.3345C73.4449 35.275 73.5599 35.2958 73.6181 35.3804C73.6537 35.432 73.6597 35.4965 73.6403 35.5517C73.4939 35.9596 73.2566 36.342 72.9298 36.6646C72.6065 36.9894 72.1851 37.2499 71.7102 37.3826C71.4729 37.4485 71.2247 37.479 70.9758 37.4811C70.7286 37.4736 70.4786 37.4467 70.2434 37.3736C69.7696 37.2446 69.3408 36.9783 68.9769 36.6492C68.6152 36.3166 68.3201 35.913 68.1205 35.4671C67.9178 35.0219 67.8212 34.5348 67.8145 34.0499C67.8088 33.5642 67.9005 33.0771 68.0842 32.6262C68.135 32.5158 68.1804 32.4022 68.2386 32.2957L68.4269 31.9839C68.5676 31.7904 68.7308 31.5878 68.8542 31.4552L68.8712 31.4369C69.1053 31.1853 69.4956 31.1742 69.7431 31.4122C69.991 31.6506 70.004 32.0452 69.7696 32.2968Z" fill="black"/>
<path d="M65.9345 41.216C65.1581 41.216 64.3994 40.9436 63.7887 40.4256C62.922 39.6901 62.482 38.5661 62.6117 37.4184C62.7306 36.3679 63.1152 35.3227 63.5225 34.2162C63.7887 33.4936 64.0637 32.7459 64.2555 32.0029C64.3422 31.6678 64.68 31.4671 65.009 31.5552C65.3386 31.6434 65.5357 31.9861 65.4494 32.3212C65.2417 33.1262 64.9554 33.904 64.6782 34.656C64.2982 35.6883 63.9392 36.6636 63.8377 37.5614C63.7541 38.2991 64.0245 38.9916 64.5792 39.4622C65.1373 39.9353 65.8598 40.0826 66.5646 39.8658C67.9859 39.4281 69.4851 38.112 71.4483 36.3001C71.7004 36.0675 72.0907 36.0865 72.3199 36.3431C72.5487 36.5998 72.53 36.9962 72.2776 37.2292C70.1941 39.1518 68.5902 40.5525 66.9225 41.0665C66.5967 41.1665 66.2638 41.216 65.9345 41.216Z" fill="black"/>
<path d="M67.7481 40.5758C67.7228 40.5758 67.697 40.574 67.6713 40.5701C67.3822 40.5271 67.1822 40.2543 67.2242 39.9604C67.3607 39.0088 67.0289 38.1181 66.3142 37.5163C65.5625 36.8833 64.5392 36.7062 63.5774 37.0431C63.301 37.1403 63.0002 36.9908 62.905 36.7102C62.8098 36.4295 62.9565 36.1234 63.2326 36.0266C64.5459 35.5661 65.9503 35.8137 66.9887 36.6883C67.9794 37.5227 68.4586 38.8037 68.2707 40.1156C68.2323 40.3833 68.0062 40.5758 67.7481 40.5758Z" fill="black"/>
<path d="M50.5671 58.8973L50.5459 59.1608C50.5459 59.1608 48.5221 56.7378 45.1284 58.7647C45.2888 58.6357 45.4581 58.5156 45.6326 58.4081C46.2726 58.012 46.9989 57.7522 47.7446 57.7091C48.4886 57.6625 49.2431 57.8668 49.8619 58.288C50.121 58.46 50.3555 58.6679 50.5671 58.8973Z" fill="#000072"/>
<path d="M73.561 60.3221C73.2807 60.3615 73.0003 60.4009 72.7183 60.4368C72.9845 60.3848 73.2542 60.3274 73.5239 60.2665C73.5239 60.2665 73.5381 60.2862 73.561 60.3221Z" fill="#807BB7"/>
<g opacity="0.3">
<path opacity="0.3" d="M63.9972 72.1126C61.9028 73.109 59.8084 73.9603 57.7141 74.6593C54.9674 73.1538 53.0899 71.2936 52.6527 70.8402C52.5874 70.7721 52.554 70.7362 52.554 70.7362L52.5822 70.2595L52.6827 68.5624L52.7126 68.0623C54.4068 70.5857 58.079 71.5427 60.8239 71.9011C60.8362 71.9011 60.8468 71.9029 60.8574 71.9047C62.3189 72.0929 63.5124 72.1126 63.9972 72.1126Z" fill="#000072"/>
</g>
</g>
<defs>
<clipPath id="clip0_100_4527">
<rect width="102" height="77" fill="white"/>
</clipPath>
</defs>
</svg>
