<svg width="40" height="35" viewBox="0 0 40 35" fill="none" xmlns="http://www.w3.org/2000/svg">
<path d="M15 32.0833C15.9205 32.0833 16.6667 31.4304 16.6667 30.625C16.6667 29.8196 15.9205 29.1667 15 29.1667C14.0796 29.1667 13.3334 29.8196 13.3334 30.625C13.3334 31.4304 14.0796 32.0833 15 32.0833Z" stroke="#5C4D48" stroke-width="2" stroke-linecap="round" stroke-linejoin="round"/>
<path d="M15 32.0833C15.9205 32.0833 16.6667 31.4304 16.6667 30.625C16.6667 29.8196 15.9205 29.1667 15 29.1667C14.0796 29.1667 13.3334 29.8196 13.3334 30.625C13.3334 31.4304 14.0796 32.0833 15 32.0833Z" stroke="black" stroke-opacity="0.2" stroke-width="2" stroke-linecap="round" stroke-linejoin="round"/>
<path d="M33.3333 32.0833C34.2538 32.0833 35 31.4304 35 30.625C35 29.8196 34.2538 29.1667 33.3333 29.1667C32.4128 29.1667 31.6666 29.8196 31.6666 30.625C31.6666 31.4304 32.4128 32.0833 33.3333 32.0833Z" stroke="#5C4D48" stroke-width="2" stroke-linecap="round" stroke-linejoin="round"/>
<path d="M33.3333 32.0833C34.2538 32.0833 35 31.4304 35 30.625C35 29.8196 34.2538 29.1667 33.3333 29.1667C32.4128 29.1667 31.6666 29.8196 31.6666 30.625C31.6666 31.4304 32.4128 32.0833 33.3333 32.0833Z" stroke="black" stroke-opacity="0.2" stroke-width="2" stroke-linecap="round" stroke-linejoin="round"/>
<path d="M1.66663 1.45833H8.33329L12.8 20.9854C12.9524 21.6568 13.3698 22.2599 13.9792 22.6892C14.5886 23.1184 15.3511 23.3464 16.1333 23.3333H32.3333C33.1155 23.3464 33.878 23.1184 34.4874 22.6892C35.0968 22.2599 35.5142 21.6568 35.6666 20.9854L38.3333 8.74999H9.99996" stroke="#5C4D48" stroke-width="2" stroke-linecap="round" stroke-linejoin="round"/>
<path d="M1.66663 1.45833H8.33329L12.8 20.9854C12.9524 21.6568 13.3698 22.2599 13.9792 22.6892C14.5886 23.1184 15.3511 23.3464 16.1333 23.3333H32.3333C33.1155 23.3464 33.878 23.1184 34.4874 22.6892C35.0968 22.2599 35.5142 21.6568 35.6666 20.9854L38.3333 8.74999H9.99996" stroke="black" stroke-opacity="0.2" stroke-width="2" stroke-linecap="round" stroke-linejoin="round"/>
</svg>
