<svg width="20" height="20" viewBox="0 0 20 20" fill="none" xmlns="http://www.w3.org/2000/svg">
<g clip-path="url(#clip0_320_415)">
<path d="M14.6772 12.9308C15.8875 11.2791 16.4296 9.23136 16.195 7.19719C15.9604 5.16301 14.9664 3.29242 13.4119 1.95966C11.8573 0.626903 9.85684 -0.0697443 7.8107 0.00909712C5.76456 0.0879386 3.82364 0.936454 2.37624 2.38489C0.928847 3.83332 0.0817206 5.77485 0.00434332 7.82104C-0.073034 9.86724 0.625044 11.8672 1.95892 13.4208C3.29279 14.9744 5.16409 15.9671 7.19843 16.2002C9.23277 16.4334 11.2801 15.8898 12.9309 14.6783H12.9297C12.9672 14.7283 13.0072 14.7758 13.0522 14.822L17.8647 19.6345C18.099 19.8691 18.417 20.0009 18.7486 20.001C19.0802 20.0011 19.3982 19.8695 19.6328 19.6351C19.8673 19.4007 19.9992 19.0828 19.9993 18.7512C19.9994 18.4196 19.8678 18.1016 19.6334 17.867L14.8209 13.0545C14.7762 13.0093 14.7282 12.9675 14.6772 12.9295V12.9308ZM14.9997 8.12575C14.9997 9.02859 14.8218 9.92259 14.4763 10.7567C14.1308 11.5908 13.6244 12.3487 12.986 12.9871C12.3476 13.6255 11.5897 14.1319 10.7556 14.4774C9.92149 14.8229 9.0275 15.0008 8.12466 15.0008C7.22182 15.0008 6.32782 14.8229 5.49371 14.4774C4.6596 14.1319 3.9017 13.6255 3.2633 12.9871C2.6249 12.3487 2.11849 11.5908 1.77299 10.7567C1.42748 9.92259 1.24966 9.02859 1.24966 8.12575C1.24966 6.30239 1.97399 4.55371 3.2633 3.26439C4.55261 1.97508 6.30129 1.25075 8.12466 1.25075C9.94802 1.25075 11.6967 1.97508 12.986 3.26439C14.2753 4.55371 14.9997 6.30239 14.9997 8.12575V8.12575Z" fill="#F69946"/>
</g>
<defs>
<clipPath id="clip0_320_415">
<rect width="20" height="20" fill="white"/>
</clipPath>
</defs>
</svg>
