<svg width="102" height="77" viewBox="0 0 102 77" fill="none" xmlns="http://www.w3.org/2000/svg">
<g clip-path="url(#clip0_201_5717)">
<path d="M74.6981 5.58971C73.4517 5.46785 72.163 5.432 70.8372 5.48577C69.5521 4.15241 68.8839 3.69183 68.2969 3.72946C67.6358 3.77247 67.1157 4.4732 66.2536 5.63272C66.1514 5.77072 66.0438 5.91588 65.931 6.06642C64.7216 6.29761 63.5087 6.5969 62.3064 6.95174C64.8962 2.95884 66.5692 0.912205 68.4256 0.810053C70.0422 0.722238 71.8668 2.11115 74.6981 5.58971Z" fill="#9E6C48"/>
<g opacity="0.6">
<path opacity="0.6" d="M74.6982 5.58971C74.1905 5.54132 73.6757 5.50548 73.1539 5.48397C70.7915 2.7384 69.1714 1.62727 67.7205 1.70613C66.6063 1.76706 65.5574 2.52872 64.3374 3.99291C65.8729 1.94269 67.1017 0.883531 68.4257 0.810053C70.0423 0.722238 71.8669 2.11115 74.6982 5.58971Z" fill="white"/>
</g>
<path d="M70.5991 5.49689C70.4211 5.50585 70.2413 5.51481 70.0597 5.52735C68.7904 5.61158 67.4911 5.78005 66.1865 6.02019C66.257 5.92521 66.3276 5.83202 66.3945 5.74241C67.2249 4.62232 67.7273 3.94489 68.3091 3.90725C68.8168 3.87678 69.4444 4.31049 70.5991 5.49689Z" fill="#FC744F"/>
<path d="M96.1284 33.7891C96.2359 32.3267 96.2377 30.8733 96.1319 29.4395C96.1548 29.4395 96.1777 29.4288 96.1954 29.4091C98.0218 27.2406 99.0725 25.7029 98.6582 24.7369C98.3426 24.0022 97.2285 23.6312 95.053 23.5398C94.6264 22.1096 94.0886 20.7225 93.4417 19.3892C97.9107 20.1634 100.312 21.4071 100.994 23.296C101.798 25.5291 100.296 28.7711 96.1284 33.7891Z" fill="#9E6C48"/>
<g opacity="0.6">
<path opacity="0.6" d="M98.8565 26.1295C99.2672 27.0883 98.2341 28.6116 96.4324 30.7568C96.4218 30.316 96.4007 29.8769 96.3672 29.4396C96.3901 29.4396 96.413 29.4289 96.4307 29.4091C97.5942 28.0274 98.4439 26.9019 98.7983 26.0166C98.8212 26.0524 98.8406 26.0901 98.8565 26.1295Z" fill="white"/>
</g>
<g opacity="0.6">
<path opacity="0.6" d="M101.126 25.3857C101.093 25.142 101.036 24.9108 100.957 24.6885C100.312 22.9036 98.1328 21.6957 94.1257 20.9143C93.9124 20.3999 93.6849 19.891 93.4417 19.3892C97.9107 20.1634 100.312 21.4071 100.994 23.296C101.216 23.9108 101.262 24.6025 101.126 25.3857Z" fill="white"/>
</g>
<path d="M96.1161 29.2285C96.035 28.2464 95.9063 27.2714 95.7247 26.3108C95.559 25.4327 95.351 24.5707 95.106 23.7212C97.1369 23.8144 98.2175 24.1603 98.4961 24.809C98.8698 25.68 97.8649 27.146 96.1161 29.2285Z" fill="#FC744F"/>
<path d="M93.2231 19.3357C93.2073 19.3214 93.1985 19.3016 93.1949 19.2819C91.7105 16.2729 89.6479 13.5112 87.0247 11.1079C80.3837 4.95011 70.6576 4.62932 62.1531 7.17417C62.1373 7.18671 62.1196 7.19388 62.1003 7.19388C62.0985 7.19388 62.095 7.19209 62.0932 7.19209C59.2478 8.04874 56.5417 9.22439 54.1335 10.6079C53.654 10.8857 53.1146 11.0631 52.554 11.133C55.6779 11.599 58.2394 12.9969 60.0165 15.2335C62.5657 18.4414 63.4207 23.1942 62.4881 28.9774C61.7389 32.0277 61.3651 35.2195 61.3757 38.4687C61.3863 41.4239 60.6881 44.2573 59.3554 46.6624C58.4721 48.2592 57.3562 49.6606 56.0005 50.8775C61.3351 56.8615 78.6066 61.4458 86.4217 55.4457C88.9674 52.5567 91.0565 49.3954 92.6484 45.9993C96.9958 36.7392 97.0804 27.1978 93.2231 19.3357ZM73.5188 35.4596C73.2949 35.7912 73.0269 36.1012 72.7043 36.3468C72.4769 36.5242 72.2213 36.6658 71.9498 36.7643C71.9498 36.7894 71.941 36.8127 71.9216 36.8306C70.3279 38.302 69.0251 39.4561 67.784 40.1192C67.7822 40.1192 67.7804 40.121 67.7769 40.1228C67.4384 40.3038 67.1035 40.449 66.7685 40.5511C66.4935 40.6372 66.2132 40.6784 65.9346 40.6784C65.2806 40.6784 64.6406 40.449 64.1276 40.0135C63.3978 39.3934 63.0276 38.4472 63.1369 37.4794C63.1721 37.1658 63.2374 36.8504 63.3167 36.5296C63.3184 36.5242 63.3202 36.5206 63.3202 36.5152C63.4947 35.8324 63.7504 35.1335 64.0183 34.4059C64.2863 33.6729 64.5648 32.9166 64.7641 32.1513C64.7394 32.0617 64.72 31.9703 64.7076 31.8789C64.6512 31.4775 64.7094 31.0653 64.854 30.6961C64.9932 30.3233 65.2136 29.99 65.4675 29.6961C65.4763 29.6853 65.4921 29.6836 65.5027 29.6925C65.5133 29.7015 65.5151 29.7176 65.5062 29.7284C65.2718 30.0348 65.0831 30.3753 64.9597 30.7355C64.8346 31.094 64.7958 31.4847 64.8628 31.8538C64.8786 31.9452 64.9016 32.0348 64.9298 32.1209C64.9315 32.1245 64.9333 32.128 64.9333 32.1316C65.136 32.7499 65.6279 33.2678 66.2432 33.4596C66.594 33.5707 66.9748 33.5815 67.3344 33.5026C67.6941 33.422 68.0308 33.2392 68.304 32.9883C68.3745 32.9291 68.4345 32.8574 68.4944 32.7858C68.5561 32.7194 68.6143 32.637 68.6742 32.5617L68.7871 32.4148L68.8629 32.2893C68.9845 32.1262 69.1115 31.9632 69.2437 31.8198L69.7373 31.1782C69.7673 31.1388 69.8219 31.1316 69.8607 31.1621C69.8995 31.1925 69.9048 31.2499 69.8748 31.2875L69.1679 32.2105L68.9316 32.5187L68.8576 32.6388C68.8118 32.7248 68.7765 32.8162 68.7359 32.904C68.5896 33.2625 68.5156 33.6514 68.5209 34.0403C68.5209 34.8198 68.8611 35.5958 69.4464 36.0941C70.0247 36.5977 70.8268 36.845 71.5778 36.6962C71.9533 36.6281 72.3094 36.4615 72.6303 36.2428C72.9494 36.0206 73.2314 35.7392 73.48 35.4292C73.4871 35.4184 73.5029 35.4166 73.5153 35.4256C73.5241 35.4346 73.5276 35.4489 73.5188 35.4596Z" fill="#F69946"/>
<path d="M62.4922 28.3601C68.5951 24.9002 75.7357 30.463 75.5827 36.9822C75.5284 39.2958 74.2605 41.4073 72.305 42.5923C68.0881 45.1472 63.167 45.2099 60.9912 41.7887" fill="white"/>
<path d="M80.9446 57.8914C80.2073 50.8666 80.4926 49.707 87.0387 54.8659L80.9446 57.8914Z" fill="#9E6C48"/>
<path d="M89.4824 51.6752C84.4383 45.8539 83.028 44.1582 93.4176 44.4854L89.4824 51.6752Z" fill="#9E6C48"/>
<g opacity="0.3">
<path opacity="0.3" d="M94.9747 29.0654C94.4882 30.6031 93.8852 32.1425 93.166 33.673C91.574 37.0692 89.4849 40.2305 86.9393 43.1195C80.5539 48.0228 67.852 45.8579 60.5111 41.6374C60.2907 43.9349 59.6314 46.1141 58.5736 48.0246C57.6904 49.6214 56.5744 51.0228 55.2188 52.2397C60.5534 58.2237 77.8249 62.808 85.64 56.8079C88.1857 53.919 90.2747 50.7576 91.8667 47.3615C94.7614 41.1947 95.7663 34.9025 94.9747 29.0654Z" fill="black"/>
</g>
<path d="M91.2585 15.8301C85.2532 20.9011 86.396 23.1851 94.687 22.6822L91.2585 15.8301Z" fill="#9E6C48"/>
<path d="M81.4095 7.33105C75.3006 19.4893 77.8837 21.4292 89.1594 13.1502L81.4095 7.33105Z" fill="#9E6C48"/>
<path d="M71.0947 5.52734C72.2424 15.0967 75.4746 14.7383 78.1895 6.55425L71.0947 5.52734Z" fill="#9E6C48"/>
<g opacity="0.6">
<path opacity="0.6" d="M93.2231 19.3357C93.2073 19.3213 93.1985 19.3016 93.1949 19.2819C91.7105 16.2729 89.6479 13.5112 87.0247 11.1079C80.3837 4.95011 70.6576 4.62932 62.1531 7.17417C62.1373 7.18671 62.1196 7.19388 62.1003 7.19388C62.0985 7.19388 62.095 7.19209 62.0932 7.19209C59.2478 8.04874 56.5417 9.22439 54.1335 10.6079C53.654 10.8857 53.1146 11.0631 52.554 11.133C53.5077 11.2746 54.4068 11.504 55.2495 11.8176C57.3668 10.6975 59.6797 9.74052 62.0932 9.01471C62.095 9.01471 62.0985 9.0165 62.1003 9.0165C62.1196 9.0165 62.1373 9.00933 62.1531 8.99678C70.6576 6.45193 80.3837 6.77273 87.0247 12.9305C89.6479 15.3338 91.7105 18.0955 93.1949 21.1045C93.1985 21.1242 93.2073 21.144 93.2231 21.1583C94.9455 24.6673 95.8817 28.5115 96.0033 32.5169C96.1461 27.8573 95.2047 23.3752 93.2231 19.3357Z" fill="white"/>
</g>
<path d="M64.5066 71.8672C64.3374 71.9497 64.1664 72.0321 63.9972 72.1128C61.9028 73.1092 59.8084 73.9605 57.714 74.6594C57.06 74.8781 56.4042 75.0824 55.7501 75.2723C54.8052 75.5465 53.8479 75.758 52.8836 75.9085C52.9136 73.8816 52.8007 72.1701 52.6526 70.8403C52.6297 70.6378 52.6068 70.4443 52.5821 70.2597C52.4481 69.222 52.3018 68.4747 52.2119 68.0625C52.2912 68.1557 52.3723 68.2489 52.457 68.3367C52.531 68.4138 52.6051 68.489 52.6826 68.5625C53.0758 68.9424 53.5112 69.2776 53.9608 69.5787C55.045 70.2973 56.2385 70.8242 57.469 71.2113C58.5603 71.5554 59.6868 71.7848 60.8239 71.9013C60.8362 71.9013 60.8468 71.9031 60.8574 71.9049C60.9913 71.9192 61.1236 71.9318 61.2576 71.9425C62.3382 72.0267 63.4295 72.0106 64.5066 71.8672Z" fill="#9E6C48"/>
<path d="M52.7072 75.9354C50.3502 76.2885 47.9667 76.2777 45.6643 75.8942C45.4334 75.8584 45.2024 75.8172 44.9732 75.7706C41.6219 75.1003 38.1031 73.896 34.3762 72.1361C35.672 72.4533 37.003 72.6128 38.3358 72.6361C40.0053 72.6612 41.6748 72.4676 43.302 72.0859C44.9256 71.697 46.5123 71.1164 47.9667 70.2723C48.6913 69.8493 49.3823 69.3565 49.9958 68.774C50.5706 68.24 51.0624 67.6037 51.4132 66.8887C51.4644 66.9872 51.519 67.0858 51.5772 67.1808C51.6918 67.3761 51.8187 67.5661 51.9545 67.7471C51.965 67.7883 52.025 68.0177 52.1061 68.421C52.1607 68.6898 52.2242 69.0339 52.2894 69.4514C52.5098 70.8583 52.7513 73.0859 52.7072 75.9354Z" fill="#5C4D48"/>
<path d="M85.8873 56.0387C85.0834 56.9169 84.239 57.7681 83.3505 58.5925C77.3177 64.1769 71.1862 68.5282 65.0353 71.6053C63.7942 71.8239 62.5267 71.8616 61.2715 71.763C60.0004 71.6627 58.7381 71.4225 57.5199 71.039C56.3035 70.6555 55.1241 70.1357 54.0575 69.4278C53.0033 68.7289 52.0495 67.8185 51.5013 66.6661V59.9546C51.7622 59.2789 52.1782 58.6588 52.7565 58.2323C53.3347 57.8004 54.054 57.58 54.7697 57.5871C55.4873 57.5943 56.203 57.8183 56.7918 58.2341C57.3789 58.6445 57.8284 59.2556 58.0241 59.9528C58.0682 60.6535 58.0752 61.3614 58.0488 62.0657C58.0188 62.7736 57.9554 63.4833 57.7932 64.1715C57.7897 64.1858 57.7985 64.2002 57.8108 64.2037C57.8249 64.2073 57.839 64.1984 57.8425 64.1858C58.0259 63.4958 58.1105 62.7826 58.1616 62.0729C58.2057 61.4008 58.2198 60.7288 58.2022 60.0531C59.4574 60.39 60.739 60.6105 62.0278 60.7449C63.3552 60.8847 64.6898 60.9456 66.0226 60.9313C68.6899 60.9026 71.3484 60.6517 73.9822 60.261C73.9946 60.2592 74.0052 60.2467 74.0034 60.2323C74.0016 60.218 73.9893 60.209 73.9752 60.2108C72.6547 60.3757 71.3308 60.5119 70.005 60.6123C68.6793 60.7108 67.3501 60.7682 66.0226 60.7628C64.6951 60.7574 63.3658 60.7055 62.0471 60.5585C60.7443 60.4151 59.4486 60.1911 58.1793 59.8614C57.9677 59.1409 57.497 58.5101 56.8923 58.0871C56.2718 57.6498 55.5243 57.4151 54.7715 57.4079C54.0205 57.399 53.2624 57.6319 52.6525 58.0871C52.0883 58.5047 51.674 59.0961 51.399 59.7395C51.1028 59.2359 50.7397 58.7628 50.2884 58.3882L49.0032 54.8649C51.7463 53.8971 54.0258 52.6139 55.8681 50.9956C59.4609 55.0279 68.4343 58.4259 76.3428 58.4259C79.9515 58.4259 83.3364 57.7162 85.8873 56.0387Z" fill="#F69946"/>
<path d="M65.5752 60.8492C65.9282 58.0574 66.6499 56.8599 66.6499 56.8599C62.3582 55.8018 58.8447 53.8469 56.1097 50.9956L49.2236 54.9222L50.2409 58.2577L51.4125 59.9373C53.7234 56.6792 56.0392 56.9527 58.3592 60.094C60.651 60.7506 63.057 61.0004 65.5752 60.8492Z" fill="white"/>
<path d="M64.5596 60.8293C65.416 62.2322 65.6283 64.2484 65.6226 66.4721C65.6198 67.494 66.6687 68.1592 67.577 67.7216C69.6788 66.7094 71.1868 64.7082 71.3966 60.5469" fill="#9E6C48"/>
<path d="M62.1371 60.348L58.4818 59.9373C55.2592 56.348 53.2279 57.1487 51.6123 59.4824L51.5154 66.6431C51.5154 66.6431 54.2381 71.7092 59.2452 71.5733C65.4877 71.4038 62.251 60.6778 62.251 60.6778" fill="white"/>
<g opacity="0.3">
<path opacity="0.3" d="M54.925 57.5925C53.3172 57.7054 51.9016 59.1606 51.9016 59.1606C52.1308 58.8021 52.4164 58.4831 52.7566 58.2322C53.3349 57.8003 54.0542 57.5799 54.7699 57.5871C54.821 57.5871 54.8739 57.5889 54.925 57.5925Z" fill="black"/>
</g>
<g opacity="0.3">
<path opacity="0.3" d="M58.0243 59.9531C57.6999 59.2452 57.3403 58.7273 56.9595 58.3599C57.4654 58.7649 57.848 59.324 58.0243 59.9531Z" fill="black"/>
</g>
<g opacity="0.3">
<path opacity="0.3" d="M72.7184 60.4365C68.6213 61.243 64.8592 61.0943 62.1672 60.7591C63.4489 60.8882 64.7358 60.9455 66.0228 60.9312C68.2635 60.9079 70.4989 60.7269 72.7184 60.4365Z" fill="black"/>
</g>
<g opacity="0.3">
<path opacity="0.3" d="M85.8873 56.0387C85.0834 56.9169 84.239 57.7681 83.3505 58.5925C77.3177 64.1769 71.1862 68.5282 65.0353 71.6053C63.7942 71.8239 62.5267 71.8616 61.2715 71.763C60.0004 71.6627 58.7381 71.4225 57.5199 71.039C56.3035 70.6555 55.1241 70.1357 54.0575 69.4278C53.0033 68.7289 52.0495 67.8185 51.5013 66.6661V59.9546C51.6088 59.6768 51.741 59.4097 51.9014 59.1606L51.5506 64.0514C53.1584 66.9135 64.7515 66.3292 70.0403 64.5317C74.8619 62.8919 73.7883 60.6965 73.5609 60.3219C73.7019 60.3022 73.8412 60.2825 73.9822 60.261C73.9946 60.2592 74.0052 60.2467 74.0034 60.2323C74.0016 60.218 73.9893 60.209 73.9752 60.2108C72.6547 60.3757 71.3308 60.5119 70.005 60.6123C68.6793 60.7108 67.3501 60.7682 66.0226 60.7628C64.6951 60.7574 63.3658 60.7055 62.0471 60.5585C60.7443 60.4151 59.4486 60.1911 58.1793 59.8614C57.9677 59.1409 57.497 58.5101 56.8923 58.0871C56.2718 57.6498 55.5243 57.4151 54.7715 57.4079C54.0205 57.399 53.2624 57.6319 52.6525 58.0871C52.0883 58.5047 51.674 59.0961 51.399 59.7395C51.1028 59.2359 50.7397 58.7628 50.2884 58.3882L49.0032 54.8649C51.7463 53.8971 54.0258 52.6139 55.8681 50.9956C59.4609 55.0279 68.4343 58.4259 76.3428 58.4259C79.9515 58.4259 83.3364 57.7162 85.8873 56.0387Z" fill="black"/>
</g>
<g opacity="0.3">
<path opacity="0.3" d="M52.4199 69.1539C52.404 69.1342 52.367 69.2436 52.2894 69.4514C51.8963 70.4819 50.4771 73.9264 45.6643 75.8942C45.4334 75.8584 45.2024 75.8172 44.9732 75.7706C41.6219 75.1003 38.1031 73.896 34.3762 72.1361C35.672 72.4533 37.003 72.6128 38.3358 72.6361C40.0053 72.6612 41.6748 72.4676 43.302 72.0859C44.9256 71.697 46.5123 71.1164 47.9667 70.2723C48.6913 69.8493 49.3823 69.3565 49.9959 68.774C50.5706 68.24 51.0624 67.6037 51.4133 66.8887C51.4644 66.9872 51.519 67.0858 51.5772 67.1808L52.1061 68.421L52.4199 69.1539Z" fill="black"/>
</g>
<path d="M51.3252 59.9619V66.6663C50.9832 67.4136 50.4772 68.0839 49.876 68.6431C49.2731 69.213 48.5944 69.6986 47.8786 70.1162C46.4436 70.9496 44.8711 71.5266 43.2615 71.9102C41.6502 72.2901 39.993 72.4818 38.3376 72.4568C36.691 72.4281 35.0444 72.1933 33.4719 71.7005C29.2232 69.6108 24.7031 66.8133 19.8497 63.2702C18.97 62.625 18.1202 61.9727 17.3022 61.3114C18.2348 61.6143 19.1286 61.7666 19.966 61.7666C20.3345 61.7666 20.6924 61.7379 21.0379 61.6806C22.7427 61.3956 24.1548 60.4135 25.1297 58.7791C25.4664 58.2092 25.7397 57.5801 25.9459 56.9027C25.9583 56.9116 25.9741 56.9188 25.9918 56.9206C28.2889 57.0496 30.4485 57.116 32.4811 57.116C37.9762 57.116 42.5387 56.6392 46.3149 55.6769C47.1946 55.451 48.0355 55.2001 48.8359 54.9224L50.0276 58.1877C50.0047 58.1715 49.9836 58.1536 49.9589 58.1375C49.3101 57.6966 48.5133 57.4816 47.7358 57.5317C46.9548 57.5747 46.2021 57.8454 45.541 58.2558C45.0509 58.5586 44.6084 58.9386 44.2346 59.3794C44.2329 59.3812 44.2311 59.383 44.2311 59.383C44.1077 59.5282 43.9913 59.6805 43.882 59.8382C43.2826 60.0264 42.6727 60.1787 42.0556 60.2988C42.0468 60.3006 42.038 60.3024 42.0292 60.3042C40.6206 60.5748 39.1768 60.668 37.7417 60.6017C36.5905 60.5479 35.4446 60.3956 34.3128 60.1644C34.3128 60.1644 34.3075 60.1626 34.2952 60.1608C34.0378 60.1071 33.7804 60.0497 33.5248 59.9888C32.8778 59.8346 32.2361 59.6572 31.6014 59.4583C31.5891 59.4547 31.575 59.4619 31.5697 59.4744C31.5662 59.4888 31.5732 59.5031 31.5873 59.5067C31.9981 59.6411 32.4106 59.7648 32.8249 59.8794C34.4292 60.3221 36.074 60.6232 37.7364 60.7164C39.8114 60.8347 41.9111 60.6196 43.9103 60.0157C43.8415 60.5838 43.8098 61.1483 43.7904 61.7164C43.771 62.2953 43.7675 62.8741 43.778 63.453C43.778 63.4655 43.7886 63.4763 43.8027 63.4781C43.8168 63.4781 43.8274 63.4655 43.8274 63.4512C43.838 62.8741 43.8627 62.2971 43.9032 61.7218C43.9438 61.1483 43.9984 60.5712 44.0883 60.0085V60.0049C44.0883 60.0031 44.0883 60.0031 44.0883 60.0013C44.0936 59.9655 44.076 59.9296 44.046 59.9135C44.3475 59.4798 44.7142 59.0909 45.1284 58.7647C45.2889 58.6357 45.4581 58.5156 45.6326 58.4081C46.2726 58.012 46.9989 57.7522 47.7446 57.7092C48.4886 57.6626 49.2431 57.8669 49.8619 58.288C50.1211 58.4601 50.3556 58.668 50.5671 58.8973C50.8615 59.2164 51.1119 59.5802 51.3252 59.9619Z" fill="#5C4D48"/>
<path d="M42.798 72.1086C40.5439 70.7161 37.3678 65.7468 39.3507 60.6775L43.8025 59.9549C43.8025 59.9549 47.3873 54.6588 51.4124 59.7101L51.5386 66.9404C51.5386 66.94 47.4349 71.9735 42.798 72.1086Z" fill="white"/>
<g opacity="0.3">
<path opacity="0.3" d="M51.3252 61.5497V66.6663C50.9832 67.4136 50.4772 68.0839 49.876 68.6431C49.2731 69.213 48.5944 69.6986 47.8786 70.1162C46.4436 70.9496 44.8711 71.5266 43.2615 71.9102C41.6502 72.2901 39.993 72.4818 38.3376 72.4568C36.691 72.4281 35.0444 72.1933 33.4719 71.7005C29.2232 69.6108 24.7031 66.8133 19.8497 63.2702C18.97 62.625 18.1202 61.9727 17.3022 61.3114C18.2348 61.6143 19.1286 61.7666 19.966 61.7666C20.3909 61.7666 20.8017 61.7272 21.1966 61.6519C21.2001 61.6519 21.2036 61.6501 21.2071 61.6501C21.2865 61.634 21.3641 61.6178 21.4399 61.5981C21.4945 61.5856 21.5474 61.5712 21.6003 61.5569C21.6214 61.5515 21.6426 61.5461 21.662 61.5408C21.7043 61.53 21.7448 61.5175 21.7854 61.5049C21.8312 61.4906 21.8771 61.4763 21.9211 61.4619C21.9811 61.4422 22.041 61.4207 22.101 61.3992C22.1591 61.3777 22.2156 61.3544 22.272 61.3311C22.316 61.3132 22.3583 61.2952 22.4024 61.2755C22.6475 61.168 22.8819 61.0443 23.1076 60.901C23.1411 60.8813 23.1746 60.8598 23.2063 60.84C23.2627 60.8024 23.3174 60.7648 23.372 60.7253C23.4285 60.6859 23.4849 60.6447 23.5413 60.5999C23.5483 60.5945 23.5571 60.5891 23.5642 60.5838C24.1654 60.116 24.6925 59.5139 25.1297 58.7791C25.4664 58.2092 25.7397 57.5801 25.9459 56.9027C25.9583 56.9116 25.9741 56.9188 25.9918 56.9206C28.2889 57.0496 30.4485 57.116 32.4811 57.116C37.9762 57.116 42.5387 56.6392 46.3149 55.6769C47.1946 55.451 48.0355 55.2001 48.8359 54.9224L50.0276 58.1877C50.0047 58.1715 49.9836 58.1536 49.9589 58.1375C49.3101 57.6966 48.5133 57.4816 47.7358 57.5317C46.9548 57.5747 46.2021 57.8454 45.541 58.2558C45.0509 58.5586 44.6084 58.9386 44.2346 59.3794C44.2329 59.3812 44.2311 59.383 44.2311 59.383C44.0901 59.4923 43.9473 59.6106 43.8027 59.7361C43.8027 59.7361 43.1751 60.0354 42.0556 60.2988C42.0468 60.3006 42.038 60.3024 42.0292 60.3042C40.3703 60.6931 37.6536 60.9995 34.3128 60.1644C34.3128 60.1644 34.3075 60.1626 34.2952 60.1608C34.2264 60.1411 33.9426 60.0658 33.5248 59.9888C33.3203 59.9511 33.0841 59.9117 32.8249 59.8794C30.8381 59.6232 27.5114 59.6877 27.0707 62.8508C29.2955 64.2236 31.4481 65.4208 33.5354 66.4477C35.1079 66.9405 36.7545 67.1753 38.4011 67.204C40.0565 67.2291 41.7136 67.0373 43.325 66.6574C44.9345 66.2738 46.5071 65.6968 47.9421 64.8634C48.6578 64.4458 49.3366 63.9602 49.9395 63.3903C50.5036 62.8652 50.9849 62.2415 51.3252 61.5497Z" fill="black"/>
</g>
<path d="M24.978 58.6856C23.3331 61.4509 20.3873 62.286 16.8949 60.9813C5.18722 51.3916 -0.179167 40.2283 0.938536 27.7567C1.21355 24.676 1.98748 21.7082 3.18452 18.9644C3.54592 18.8462 5.91531 18.1436 7.9374 19.2942C9.33717 20.0899 10.2733 21.5899 10.7193 23.7549C12.0909 30.3876 13.332 34.9809 17.9139 38.273C18.552 38.7318 19.0545 39.1333 19.4935 39.5365C22.6368 42.4201 24.8722 46.0761 25.7854 49.8288C26.6069 53.2124 26.3143 56.44 24.978 58.6856Z" fill="#B1431F"/>
<g opacity="0.3">
<path opacity="0.3" d="M26.1803 54.7843C26.0357 56.2557 25.6302 57.5873 24.9779 58.6859C23.3331 61.4511 20.3873 62.2863 16.8949 60.9816C5.18722 51.3918 -0.179166 40.2285 0.938536 27.757C1.21355 24.6763 1.98748 21.7085 3.18452 18.9647C3.27795 18.9342 3.50361 18.8661 3.82094 18.7998C3.55297 19.9952 3.36081 21.2174 3.24975 22.4576C2.17435 34.4574 7.10176 45.2458 17.9047 54.5872C19.2114 55.7173 20.8791 56.3604 22.5931 56.2776C23.984 56.2105 25.204 55.7059 26.1803 54.7843Z" fill="black"/>
</g>
<g opacity="0.6">
<path opacity="0.6" d="M25.3287 58.0189C25.9069 56.0261 25.9052 53.6174 25.3005 51.1245C24.3873 47.3718 22.1519 43.7158 19.0086 40.8322C18.5696 40.429 18.0672 40.0276 17.429 39.5688C12.8471 36.2766 11.606 31.6833 10.2344 25.0506C9.78842 22.8857 8.8523 21.3856 7.45253 20.5899C5.43044 19.4394 3.06105 20.1419 2.69965 20.2602C2.5833 20.5254 2.47223 20.7924 2.36646 21.063C2.6115 20.3498 2.88476 19.6508 3.18446 18.9644C3.54586 18.8462 5.91525 18.1436 7.93733 19.2942C9.33711 20.0899 10.2732 21.5899 10.7192 23.7549C12.0908 30.3876 13.3319 34.9809 17.9138 38.2731C18.552 38.7318 19.0544 39.1333 19.4934 39.5365C22.6367 42.4201 24.8721 46.0761 25.7853 49.8288C26.5293 52.8898 26.36 55.8253 25.3287 58.0189Z" fill="white"/>
</g>
<path d="M62.5074 21.9538C62.1584 19.3355 61.2751 17.1042 59.8789 15.3461C57.8515 12.7959 54.7875 11.3496 51.0184 11.1615C51.0131 11.1597 51.0078 11.1579 51.0043 11.1579C47.2827 11.0468 44.1605 10.1256 41.4915 8.33884C35.7267 4.58429 30.4907 3.29932 26.0252 3.29932C20.5777 3.29932 16.2797 5.20975 13.5665 6.87645C9.03049 9.66324 5.47112 13.8407 3.27979 18.7476C3.94618 18.5559 6.12869 18.0612 8.02209 19.1365C9.46946 19.9591 10.4338 21.5004 10.8922 23.7173C12.2549 30.3088 13.4872 34.8716 18.0162 38.1279C18.6597 38.5903 19.1674 38.9953 19.6116 39.4039C20.516 40.2337 21.3464 41.128 22.0939 42.0689C23.959 44.4255 25.2971 47.0797 25.9564 49.7859C26.5523 52.2411 26.5664 54.6175 26.0252 56.6086C26.0146 56.6534 26.0023 56.6982 25.9899 56.743C25.9935 56.743 25.997 56.7412 26.0023 56.7412H26.0164C34.4944 57.2215 41.1212 56.8165 46.2725 55.5028C47.1769 55.2716 48.0372 55.0118 48.857 54.7268C48.857 54.725 48.857 54.725 48.8588 54.725H48.8605C51.6407 53.7537 53.9431 52.4597 55.7942 50.8217C55.7995 50.8146 55.803 50.8056 55.8118 50.8002C55.8189 50.793 55.8277 50.7877 55.8365 50.7841C57.1992 49.5708 58.3187 48.1711 59.2019 46.5743C60.5188 44.1961 61.2099 41.3932 61.1993 38.4702C61.1888 35.2049 61.5643 31.9988 62.317 28.9414C62.7278 26.3947 62.7877 24.0506 62.5074 21.9538ZM57.8409 48.3987C57.2415 49.6515 56.1168 50.4687 54.754 50.6389C54.5918 50.6604 54.4297 50.6694 54.2675 50.6694C53.2644 50.6694 52.2859 50.2823 51.5261 49.5726C50.9108 48.9955 50.4824 48.2572 50.2815 47.4507C50.1827 47.051 50.1387 46.6353 50.1545 46.2141C50.2744 43.1782 50.2198 40.3592 49.9871 37.705C49.9818 37.6906 49.98 37.6763 49.9835 37.662C49.8072 35.6745 49.5287 33.782 49.1497 31.9612C48.6031 31.9468 48.0602 31.8196 47.5701 31.5723C47.2774 31.4343 47.0165 31.2371 46.7715 31.031C46.5317 30.816 46.3149 30.5776 46.1192 30.3231C46.1104 30.3124 46.1121 30.2962 46.1227 30.2873C46.1333 30.2783 46.1491 30.2801 46.158 30.2909C46.574 30.7676 47.0623 31.1887 47.63 31.445C47.9121 31.5723 48.2065 31.6762 48.5132 31.7264C48.8182 31.7801 49.1267 31.7963 49.4352 31.7784C49.7438 31.7568 50.0488 31.6995 50.3449 31.6099C50.6393 31.5149 50.9214 31.3859 51.1894 31.2282C51.4521 31.0669 51.7059 30.8751 51.951 30.678C52.196 30.4808 52.4322 30.2729 52.6544 30.0507C52.8783 29.8267 53.0881 29.5937 53.282 29.3446C53.4724 29.0919 53.6593 28.8374 53.7932 28.5579C54.0665 27.9987 54.1705 27.3571 54.1 26.7352C54.0647 26.4216 53.9819 26.1259 53.8708 25.823L53.5535 24.9162L52.9171 23.1026C52.8994 23.056 52.9241 23.004 52.9699 22.9879C53.0158 22.9699 53.0651 22.995 53.0828 23.0416L53.7192 24.8571L54.0365 25.7639C54.137 26.0327 54.2181 26.3231 54.2604 26.6152C54.8016 26.9772 55.431 27.2084 56.0762 27.2424C56.3971 27.2586 56.7232 27.2263 57.0317 27.1385C57.3385 27.0471 57.6312 26.9019 57.8833 26.7048C58.3927 26.3105 58.703 25.6833 58.7471 25.0255C58.7735 24.6976 58.7436 24.3642 58.6783 24.0381C58.6096 23.7119 58.5073 23.3929 58.3822 23.0828C58.3769 23.0685 58.3822 23.0542 58.3963 23.0488C58.4086 23.0434 58.4227 23.0488 58.428 23.0613C58.5673 23.3678 58.6924 23.685 58.7753 24.0148C58.8529 24.3463 58.8952 24.6904 58.8775 25.0345C58.8617 25.3786 58.7859 25.7227 58.636 26.0381C58.5567 26.2137 58.4509 26.3732 58.3293 26.5202C58.3275 26.5202 58.3275 26.5202 58.3275 26.5202C55.9334 31.2264 55.9423 34.8196 55.9581 38.9756C56.4482 39.8018 56.866 40.6065 57.2063 41.3807C58.4456 44.2033 58.6783 46.6442 57.8409 48.3987Z" fill="#5C4D48"/>
<g opacity="0.6">
<path opacity="0.6" d="M59.8789 15.729C57.8515 13.1787 54.7875 11.7325 51.0184 11.5443C51.0131 11.5425 51.0078 11.5407 51.0042 11.5407C47.2827 11.4296 44.1605 10.5084 41.4914 8.72165C35.7266 4.9671 30.4907 3.68213 26.0252 3.68213C20.5777 3.68213 16.2797 5.59256 13.5665 7.25926C9.03049 10.046 5.47112 14.2235 3.27979 19.1304C3.48429 19.0713 3.83335 18.9835 4.27232 18.9226C6.48657 14.6107 9.79207 10.9475 13.8997 8.42415C16.6129 6.75746 20.9109 4.84703 26.3584 4.84703C30.8239 4.84703 36.0598 6.132 41.8246 9.88655C44.4937 11.6733 47.6159 12.5945 51.3374 12.7056C51.341 12.7056 51.3463 12.7074 51.3516 12.7092C55.1207 12.8974 58.1847 14.3436 60.2121 16.8938C61.0618 17.9638 61.7211 19.2075 62.1866 20.609C61.73 18.7272 60.9578 17.0856 59.8789 15.729Z" fill="white"/>
</g>
<g opacity="0.3">
<path opacity="0.3" d="M62.317 28.9414C61.5642 31.9988 61.1887 35.2049 61.1993 38.4702C61.2098 41.3932 60.5188 44.1961 59.2019 46.5743C58.3186 48.1711 57.1992 49.5708 55.8364 50.7841C55.8276 50.7876 55.8188 50.793 55.8117 50.8002C55.8029 50.8056 55.7994 50.8145 55.7941 50.8217C53.943 52.4597 51.6406 53.7537 48.8605 54.725H48.8587C48.8569 54.725 48.8569 54.725 48.8569 54.7268C48.0372 55.0117 47.1769 55.2716 46.2725 55.5028C41.1212 56.8164 34.4943 57.2215 26.0163 56.7412C26.0216 56.6964 26.0234 56.6516 26.0252 56.6085C26.3971 50.4346 23.9308 44.9596 19.8584 39.8788C20.5706 40.6495 21.3181 41.3807 22.0938 42.0688C30.265 49.3217 41.6695 51.8844 50.2814 47.4507C50.4824 48.2571 50.9108 48.9955 51.526 49.5726C52.2859 50.2823 53.2643 50.6694 54.2674 50.6694C54.4296 50.6694 54.5918 50.6604 54.754 50.6389C56.1167 50.4686 57.2415 49.6514 57.8409 48.3987C58.6783 46.6442 58.4456 44.2033 57.2062 41.3807C60.3813 36.9254 62.3981 30.5435 62.5056 21.9502L62.5074 21.9538C62.7877 24.0506 62.7277 26.3947 62.317 28.9414Z" fill="black"/>
</g>
<path d="M57.6823 48.3199C57.1111 49.5171 56.0357 50.2984 54.7329 50.4615C53.6152 50.6013 52.4886 50.2303 51.646 49.44C50.7627 48.6138 50.2832 47.44 50.3308 46.2213C50.4507 43.1854 50.396 40.3646 50.1633 37.7086C51.0236 36.9254 52.464 37.9559 52.4781 37.9667C52.501 37.9846 52.5327 37.9882 52.5592 37.9774C54.1282 37.4039 55.1842 37.7516 55.7941 39.0455C58.0542 42.8431 58.7241 46.1371 57.6823 48.3199Z" fill="#FC1515"/>
<g opacity="0.3">
<path opacity="0.3" d="M57.6823 48.3201C57.1111 49.5173 56.0357 50.2986 54.7329 50.4617C53.6152 50.6015 52.4887 50.2305 51.646 49.4402C50.7628 48.614 50.2833 47.4402 50.3309 46.2215C50.352 45.6785 50.3679 45.1408 50.3785 44.6121C50.5918 45.0243 50.8756 45.4025 51.2212 45.7269C52.0638 46.5154 53.1904 46.8864 54.3081 46.7466C55.6109 46.5835 56.6863 45.8039 57.2574 44.6068C57.469 44.1623 57.61 43.6731 57.6823 43.1426C58.317 45.1982 58.3258 46.9706 57.6823 48.3201Z" fill="black"/>
</g>
<g opacity="0.6">
<path opacity="0.6" d="M57.6823 48.3199C57.5641 48.569 57.4231 48.8002 57.2609 49.0117C58.1565 46.8306 57.4584 43.6317 55.2741 39.9613C54.6641 38.6674 53.6081 38.3197 52.0391 38.8932C52.0127 38.904 51.9809 38.9004 51.958 38.8825C51.9474 38.8735 51.0254 38.214 50.2162 38.3502C50.2004 38.1351 50.1827 37.9219 50.1633 37.7086C51.0236 36.9254 52.464 37.9559 52.4781 37.9667C52.501 37.9846 52.5327 37.9882 52.5592 37.9774C54.1282 37.4039 55.1842 37.7516 55.7941 39.0455C58.0542 42.8431 58.7241 46.1371 57.6823 48.3199Z" fill="white"/>
</g>
<path d="M55.7799 38.648C55.1188 37.5512 54.0329 37.2626 52.5414 37.7949C52.3017 37.6282 51.0341 36.8218 50.1438 37.4938C49.9675 35.5691 49.696 33.7321 49.3293 31.9615C49.3681 31.9597 49.4069 31.9615 49.4457 31.9597C49.7683 31.9364 50.0874 31.879 50.3977 31.7858C50.7062 31.6891 51.0024 31.5529 51.2827 31.3898C51.8327 31.0457 52.3263 30.6389 52.7847 30.1837C53.0103 29.9561 53.2272 29.7141 53.4229 29.4578C53.6168 29.2016 53.809 28.9363 53.9518 28.637C54.2215 28.0833 54.3326 27.456 54.285 26.8413C54.8209 27.1746 55.4344 27.3879 56.0673 27.422C56.7249 27.4578 57.4159 27.2947 57.9536 26.8789C55.8169 31.2858 55.7676 34.7357 55.7799 38.648Z" fill="black"/>
<path d="M67.8545 39.879C67.9602 38.7714 67.5477 37.7409 66.7085 37.033C65.8288 36.2947 64.653 36.0635 63.5317 36.4022C63.701 35.7768 63.9372 35.1352 64.1823 34.4685C64.4255 33.809 64.6724 33.1298 64.8663 32.438C65.1131 33.0007 65.605 33.4559 66.1902 33.6316C66.5728 33.7498 66.9836 33.7642 67.3732 33.6764C67.7628 33.5903 68.1259 33.3932 68.4221 33.1208C68.4486 33.0975 68.4732 33.0724 68.4979 33.0455C68.3939 33.3681 68.341 33.705 68.3446 34.0438C68.3446 34.8699 68.7077 35.6925 69.3283 36.2338C69.9418 36.7804 70.8056 37.0384 71.6113 36.8664C71.6148 36.8664 71.6201 36.8646 71.6236 36.8628C70.1868 38.1872 68.9863 39.241 67.8545 39.879Z" fill="black"/>
<path d="M67.6658 39.9797C67.3467 40.1481 67.0311 40.2843 66.7173 40.3811C65.8535 40.6463 64.9279 40.4582 64.2404 39.8757C63.5564 39.2951 63.2091 38.4079 63.3113 37.5011C63.3448 37.2054 63.4048 36.9079 63.4806 36.605C64.5753 36.2394 65.7371 36.4491 66.5957 37.1714C67.419 37.8667 67.8068 38.8882 67.6658 39.9797Z" fill="#FC1515"/>
<path d="M49.2924 77.0004C47.7826 77.0004 46.2831 76.8548 44.8202 76.5624C37.2985 75.0591 28.9788 70.9253 19.386 63.9248C12.3977 58.8 7.23544 53.1515 4.04099 47.136C0.841264 41.1112 -0.468246 34.5666 0.148077 27.6837C0.949508 18.7347 5.81239 10.6988 13.1564 6.18684C17.1731 3.71905 21.4909 2.46777 25.991 2.46777C26.0206 2.46777 26.0499 2.46777 26.0795 2.46777C31.3306 2.48713 36.6599 4.23376 41.9205 7.65999C44.7081 9.52633 48.0189 10.4167 52.0426 10.3629C52.6487 10.3557 53.2368 10.1984 53.7435 9.90662C58.643 7.08793 64.5757 5.26353 70.02 4.90079C77.0301 4.4334 83.096 6.37394 87.558 10.5117C97.318 19.4495 99.5442 33.182 93.3651 46.3471C91.1262 51.1167 87.9367 55.4369 83.8844 59.1882C74.7281 67.664 65.3351 73.3368 55.9669 76.0484C53.7798 76.6817 51.5254 77.0004 49.2924 77.0004ZM25.9405 3.92694C21.7493 3.92694 17.6748 5.0861 13.8859 7.41374C6.9241 11.6912 2.31367 19.3168 1.55243 27.8134C0.366681 41.0542 6.6438 52.8124 20.2096 62.761C29.6336 69.6382 37.773 73.6928 45.092 75.1555C48.5012 75.8365 52.1283 75.6691 55.5805 74.6698C64.7375 72.0193 73.9407 66.4539 82.9349 58.1283C86.8514 54.5028 89.9327 50.3314 92.0923 45.7302C97.9918 33.1612 95.8914 20.0735 86.611 11.5748C76.6469 2.33444 61.2095 7.25998 54.4381 11.1554C53.7248 11.5658 52.9019 11.7877 52.0585 11.7977C51.9534 11.7988 51.848 11.7995 51.7436 11.7995C47.5679 11.7995 44.1009 10.8378 41.1519 8.86359C36.1085 5.57751 30.9417 3.92694 25.9405 3.92694ZM55.7737 75.3591H55.7754H55.7737Z" fill="black"/>
<path d="M32.4776 57.6532C30.4354 57.6532 28.267 57.5876 25.9629 57.4571C25.6226 57.4378 25.3621 57.1421 25.3811 56.7962C25.3998 56.4499 25.6886 56.1808 26.0313 56.2048C34.462 56.6815 41.0406 56.2815 46.1432 54.9807C52.2532 53.423 56.3742 50.5871 58.7412 46.3107C60.0129 44.0128 60.6804 41.3024 60.6705 38.4718C60.6589 35.1714 61.0379 31.9298 61.797 28.8365C62.6898 23.2723 61.8845 18.7249 59.4682 15.6847C57.5385 13.257 54.6074 11.8782 50.992 11.6979C50.6518 11.681 50.3894 11.3864 50.406 11.0405C50.4226 10.6946 50.7089 10.4258 51.0526 10.4448C55.0291 10.6434 58.2712 12.1825 60.4283 14.8961C63.0755 18.2267 63.9686 23.126 63.011 29.0645C63.0082 29.0813 63.0047 29.0985 63.0008 29.1154C62.2625 32.1154 61.8936 35.2617 61.9049 38.4672C61.9155 41.5145 61.1934 44.4393 59.8169 46.9261C57.2748 51.5187 52.9006 54.5513 46.444 56.1976C42.6258 57.1707 38.0196 57.6528 32.4776 57.6532ZM62.4017 28.9631H62.4035H62.4017Z" fill="black"/>
<path d="M76.2966 58.9638C74.3662 58.9638 72.3085 58.7641 70.1676 58.3587C63.9247 57.1763 58.1313 54.3988 55.4083 51.2833C55.1819 51.0242 55.2048 50.6278 55.4597 50.3977C55.7147 50.1675 56.1046 50.1908 56.331 50.45C58.8834 53.3705 64.4038 55.9906 70.3939 57.1257C77.0064 58.3785 82.7345 57.6075 86.1102 55.011C86.382 54.8017 86.7688 54.8565 86.9747 55.1325C87.1803 55.4089 87.1267 55.8024 86.8552 56.0114C84.3271 57.9552 80.6348 58.9638 76.2966 58.9638Z" fill="black"/>
<path d="M74.0018 60.4136C72.6944 60.6993 71.3743 60.933 70.044 61.1068C69.379 61.1946 68.7112 61.271 68.041 61.3236C67.706 61.3545 67.3707 61.3803 67.0343 61.3982C66.6983 61.4201 66.3616 61.4355 66.0245 61.4444C64.6766 61.4953 63.3202 61.4616 61.9669 61.3297C60.6148 61.1935 59.2647 60.9455 57.9534 60.543H57.9531L57.939 60.539C57.7281 60.4778 57.5747 60.31 57.5187 60.1104C57.3575 59.5304 56.9873 59.025 56.4891 58.6756C55.9927 58.3247 55.3771 58.1297 54.7664 58.125C54.155 58.1186 53.5521 58.3053 53.069 58.667C52.5818 59.0258 52.2225 59.5573 51.9891 60.1613V60.1616L52.03 59.9372V66.6876L51.9718 66.4216C52.4548 67.4496 53.3398 68.312 54.3486 68.9786C55.3608 69.6507 56.4994 70.1546 57.6763 70.526C58.855 70.8973 60.0806 71.1292 61.3122 71.2274C62.5431 71.3238 63.7849 71.2851 64.9865 71.0683L64.9886 71.0679C65.3243 71.0073 65.6444 71.2349 65.704 71.5758C65.7636 71.917 65.54 72.2425 65.2044 72.3031C63.8808 72.5418 62.5399 72.5816 61.2166 72.4783C59.893 72.3726 58.5828 72.1246 57.3128 71.7249C56.0442 71.3242 54.808 70.7815 53.672 70.0281C53.106 69.6493 52.5627 69.2206 52.0786 68.7116C51.5952 68.2037 51.1665 67.6191 50.8541 66.9535C50.8149 66.8703 50.7963 66.7822 50.7959 66.6954V66.6879V59.9376V59.9186C50.7959 59.8466 50.8111 59.7756 50.8368 59.7129V59.7125C51.1358 58.9293 51.6329 58.1756 52.3416 57.6537C53.0443 57.1279 53.9195 56.8608 54.7759 56.8709C55.6334 56.8784 56.4828 57.1447 57.1939 57.6458C57.9055 58.1415 58.4671 58.9017 58.7051 59.7641L58.2711 59.3315H58.2715C59.5344 59.6186 60.8154 59.8265 62.109 59.9749C63.4023 60.1272 64.709 60.2064 66.022 60.2501C66.3503 60.2623 66.6789 60.2688 67.0079 60.2684C67.3368 60.2734 67.6661 60.2777 67.9958 60.2731C68.3255 60.2727 68.6555 60.2699 68.9855 60.2605C69.3159 60.2552 69.6466 60.2516 69.977 60.238C71.2996 60.1978 72.6256 60.1322 73.956 60.0587C74.0533 60.053 74.1368 60.129 74.1425 60.2283C74.1464 60.3172 74.0854 60.395 74.0018 60.4136Z" fill="black"/>
<path d="M58.7276 59.9007C58.71 60.2824 58.6789 60.6387 58.6416 61.005C58.6035 61.3684 58.5577 61.7308 58.5016 62.0918C58.3866 62.8126 58.2372 63.5326 57.9886 64.2244C57.9551 64.318 57.8535 64.366 57.7615 64.3316C57.6815 64.3018 57.6356 64.2197 57.6469 64.1373L57.6476 64.133C57.7432 63.4452 57.7432 62.7441 57.7097 62.0469C57.6913 61.6978 57.6635 61.3491 57.6282 61.0018C57.5923 60.6573 57.5492 60.3021 57.496 59.9738C57.4399 59.6304 57.6684 59.3053 58.0066 59.2483C58.3443 59.1913 58.6641 59.424 58.7202 59.7673C58.7273 59.8111 58.7294 59.8584 58.7276 59.9007Z" fill="black"/>
<path d="M55.0978 60.4749C54.8608 60.3079 54.6115 60.1362 54.3249 60.0534C54.0425 59.9595 53.7354 59.904 53.4166 59.9179C53.0989 59.9258 52.7714 59.981 52.4502 60.0792C52.1318 60.1771 51.8064 60.3176 51.5232 60.4882L51.5112 60.4954C51.4273 60.5459 51.3194 60.5176 51.2697 60.4323C51.2263 60.3577 51.2422 60.2649 51.3025 60.2086C51.5881 59.943 51.891 59.7312 52.2259 59.5434C52.5598 59.3588 52.9223 59.2122 53.3091 59.119C53.6948 59.0204 54.1102 58.9982 54.5245 59.0434C54.9451 59.0771 55.3456 59.2276 55.7342 59.4004C56.0487 59.5405 56.1918 59.9129 56.0543 60.2326C55.9168 60.5523 55.5501 60.6979 55.2356 60.5581C55.1993 60.542 55.1651 60.5226 55.1334 60.5004L55.0978 60.4749Z" fill="black"/>
<path d="M51.2964 62.2474C51.9917 62.0248 52.7547 61.9263 53.4867 62.065C53.8512 62.1334 54.2024 62.2625 54.5183 62.4413C54.8325 62.6266 55.1036 62.8618 55.3413 63.1166C55.4086 63.1887 55.4058 63.3026 55.3349 63.3707C55.2739 63.4295 55.1826 63.4356 55.1153 63.3901L55.1068 63.3844C54.8448 63.2077 54.5712 63.0646 54.2867 62.9743C53.9997 62.8904 53.7077 62.8557 53.4193 62.8686C53.1309 62.8808 52.8464 62.9395 52.5721 63.032C52.297 63.1241 52.0351 63.2499 51.7798 63.4012C51.4829 63.5768 51.1025 63.475 50.9293 63.1732C50.7566 62.8714 50.8567 62.4847 51.1536 62.3087C51.1934 62.2854 51.2347 62.2664 51.277 62.2528L51.2964 62.2474Z" fill="black"/>
<path d="M33.6089 71.1805C35.1321 71.6611 36.7367 71.8916 38.3452 71.9188C39.9551 71.9429 41.571 71.7568 43.1408 71.3869C44.7073 71.0134 46.2379 70.4514 47.6161 69.65C48.303 69.2485 48.95 68.7855 49.5148 68.2514C50.0843 67.722 50.5451 67.1016 50.848 66.4352L50.7958 66.6879V59.9376L50.8733 60.2419L50.873 60.2416C50.5342 59.6337 50.1065 59.0896 49.5709 58.7369C49.0413 58.3785 48.4155 58.2075 47.7727 58.2473C47.131 58.2828 46.4836 58.5107 45.9082 58.8677C45.3324 59.2247 44.8237 59.7097 44.4439 60.2703L44.4319 60.2878C44.3533 60.4039 44.2394 60.4814 44.1153 60.5154C42.0206 61.0893 39.8419 61.2477 37.7194 61.0617C35.5936 60.8781 33.5232 60.3649 31.541 59.6538C31.4493 59.6208 31.401 59.5183 31.4334 59.4251C31.4645 59.3358 31.559 59.2874 31.6471 59.3122C33.6505 59.8738 35.7072 60.2269 37.7589 60.2566C39.8084 60.2892 41.8485 59.9871 43.7539 59.3161L43.4253 59.5616C43.9112 58.8455 44.5402 58.2476 45.2651 57.7971C45.9893 57.3491 46.8225 57.0447 47.7064 56.9949C48.1468 56.9709 48.5977 57.0111 49.0314 57.1308C49.4651 57.2487 49.8794 57.4412 50.2496 57.6903C50.9989 58.1881 51.5422 58.8985 51.9512 59.6333L51.9516 59.634C52.0037 59.7236 52.0288 59.8222 52.0291 59.9193V59.938V66.6883V66.6972C52.0291 66.7833 52.0097 66.8671 51.9769 66.9406C51.5845 67.8109 51.0123 68.5557 50.3579 69.1672C49.7049 69.7844 48.9828 70.298 48.2293 70.7385C46.7188 71.6156 45.0874 72.2102 43.4211 72.6085C41.753 73.0017 40.0415 73.1984 38.3265 73.1733C36.6129 73.1443 34.893 72.8995 33.2387 72.3776C32.9132 72.2748 32.7313 71.9235 32.8325 71.5927C32.9333 71.2618 33.2792 71.0769 33.6047 71.1798L33.6089 71.1805Z" fill="black"/>
<path d="M44.61 60.094C44.537 60.3373 44.4704 60.6266 44.4101 60.9001C44.3495 61.1778 44.2941 61.4589 44.2423 61.7409C44.1397 62.3062 44.0522 62.8772 43.9789 63.4521C43.9662 63.551 43.8773 63.6209 43.78 63.6084C43.6982 63.5976 43.6365 63.5317 43.6263 63.4521C43.5526 62.8714 43.4934 62.2872 43.4497 61.6979C43.4285 61.4033 43.4112 61.1076 43.3999 60.8097C43.3901 60.5076 43.3805 60.2216 43.3918 59.8932V59.8879C43.4035 59.5384 43.6915 59.2649 44.0353 59.2767C44.3791 59.2886 44.6481 59.5814 44.6365 59.9309C44.6347 59.9868 44.6248 60.0431 44.61 60.094Z" fill="black"/>
<path d="M51.001 61.0119C50.7274 60.7216 50.3988 60.4876 50.0226 60.3453C49.6478 60.2022 49.2275 60.1521 48.8083 60.2044C48.3894 60.2564 47.9723 60.4087 47.613 60.6564C47.2548 60.903 46.9533 61.2489 46.7929 61.6689L46.7911 61.674C46.7555 61.7664 46.6532 61.8123 46.5626 61.7765C46.4805 61.7439 46.4357 61.6557 46.454 61.5707C46.5665 61.0467 46.8641 60.5711 47.2523 60.2044C47.6415 59.8363 48.1218 59.5664 48.6443 59.4155C49.1665 59.2642 49.7352 59.2359 50.2888 59.3506C50.843 59.4632 51.3723 59.7227 51.8243 60.0768L51.8261 60.0779C52.0968 60.2901 52.1473 60.685 51.9385 60.9603C51.7301 61.2356 51.3416 61.2869 51.0708 61.0747C51.0461 61.0564 51.0218 61.0334 51.001 61.0119Z" fill="black"/>
<path d="M47.8391 63.9152C48.0503 63.6872 48.2862 63.4704 48.5598 63.2883C48.8323 63.1059 49.1461 62.9607 49.4846 62.8822C49.822 62.8026 50.1803 62.7847 50.5258 62.8266C50.872 62.8679 51.2059 62.9596 51.5268 63.0761L51.5293 63.0768C51.8526 63.194 52.0215 63.5557 51.9062 63.8844C51.7909 64.2134 51.4355 64.3851 51.1118 64.2679C51.0635 64.2503 51.0159 64.2252 50.9747 64.198C50.7617 64.0532 50.5403 63.9252 50.3076 63.8331C50.0752 63.7403 49.8326 63.6897 49.5816 63.6826C49.3309 63.675 49.0721 63.7188 48.8165 63.8091C48.5605 63.8983 48.3091 64.0313 48.0655 64.1897L48.0633 64.1912C47.9808 64.2446 47.8708 64.2202 47.8183 64.1363C47.7742 64.0647 47.7845 63.9736 47.8391 63.9152Z" fill="black"/>
<path d="M19.9881 62.3095C18.9409 62.3095 17.8144 62.0912 16.6329 61.6471C16.3131 61.527 16.1498 61.1661 16.268 60.8413C16.3861 60.5163 16.7418 60.3503 17.0606 60.4704C20.3481 61.7052 22.9989 60.9722 24.5256 58.4069C27.0303 54.1979 25.6828 45.9389 19.1387 39.9352C18.7163 39.5474 18.2301 39.1589 17.6085 38.7123C12.88 35.314 11.5563 30.415 10.2028 23.8647C9.78917 21.8636 8.94261 20.485 7.68669 19.7671C5.72137 18.6445 3.33718 19.4782 3.3132 19.4868C2.99199 19.6015 2.63976 19.4316 2.52587 19.1058C2.41199 18.78 2.57806 18.4219 2.89856 18.3054C3.01667 18.2624 5.81974 17.2681 8.28116 18.6674C9.86709 19.5689 10.9199 21.2306 11.4107 23.6066C12.7474 30.073 13.9501 34.5462 18.3214 37.6879C18.9839 38.1642 19.5065 38.5822 19.9659 39.0037C27.0716 45.5224 28.4012 54.3183 25.5819 59.056C24.3066 61.1983 22.3494 62.3095 19.9881 62.3095Z" fill="black"/>
<path d="M50.2134 59.0641C49.963 59.0641 49.7271 58.9078 49.6348 58.6548L48.3104 55.0271C48.192 54.7024 48.3545 54.3414 48.6743 54.2206C48.993 54.0999 49.3488 54.2655 49.4676 54.5905L50.792 58.2182C50.9104 58.543 50.7479 58.9039 50.4281 59.0247C50.3572 59.0516 50.2846 59.0641 50.2134 59.0641Z" fill="black"/>
<path d="M52.7951 76.6424C52.7916 76.6424 52.7877 76.6424 52.7842 76.6424C52.4436 76.6363 52.1721 76.3506 52.1781 76.0044C52.2648 70.9645 51.4514 67.9117 51.4437 67.8813C51.3527 67.5472 51.5456 67.2017 51.8738 67.1096C52.2028 67.0164 52.5423 67.2132 52.6329 67.5469C52.6685 67.6777 53.5021 70.8064 53.4118 76.0262C53.4058 76.3689 53.1308 76.6424 52.7951 76.6424Z" fill="black"/>
<path d="M96.0285 34.7669C95.867 34.7669 95.7048 34.711 95.5722 34.5959C95.2754 34.3396 95.2394 33.887 95.4918 33.5855C99.5695 28.7102 101.134 25.5094 100.414 23.5122C99.817 21.8545 97.4462 20.6982 93.1662 19.9781C92.7819 19.9132 92.522 19.5444 92.5858 19.1537C92.6493 18.7634 93.0131 18.4999 93.3968 18.5637C98.3566 19.3985 100.929 20.7727 101.739 23.0194C102.676 25.6212 101.129 29.0593 96.5662 34.5142C96.4262 34.6812 96.228 34.7669 96.0285 34.7669Z" fill="black"/>
<path d="M96.1276 29.8891C96.0057 29.8891 95.8837 29.8465 95.7839 29.7597C95.5621 29.5665 95.536 29.2271 95.726 29.0016C96.5366 28.0396 98.435 25.7869 98.0919 24.9883C97.9523 24.6629 97.2961 24.2557 94.9645 24.1628C94.6725 24.151 94.4451 23.9012 94.4567 23.6044C94.4684 23.3076 94.7155 23.0772 95.0061 23.0883C97.4481 23.1854 98.661 23.6252 99.0615 24.5578C99.5728 25.7485 98.5661 27.2837 96.5296 29.7009C96.4252 29.8253 96.2768 29.8891 96.1276 29.8891Z" fill="black"/>
<path d="M62.1002 7.82145C61.9676 7.82145 61.8333 7.78346 61.7138 7.70389C61.3883 7.48668 61.2974 7.04223 61.5114 6.71104C64.3832 2.26472 66.144 0.127044 68.3826 0.00553679C70.3317 -0.102709 72.3143 1.36685 75.4432 5.23968C75.6903 5.54578 75.647 5.99741 75.3458 6.24866C75.0451 6.49957 74.6005 6.45584 74.3533 6.14974C71.6229 2.7701 69.8568 1.36004 68.4577 1.4371C66.8432 1.52456 65.185 3.63464 62.6901 7.49779C62.5547 7.70783 62.3298 7.82145 62.1002 7.82145Z" fill="black"/>
<path d="M65.9811 6.6849C65.8694 6.6849 65.7565 6.64906 65.661 6.57486C65.4286 6.39493 65.3839 6.05765 65.5609 5.82144C65.6807 5.66158 65.7943 5.50853 65.9018 5.36337C66.8393 4.10026 67.4049 3.33788 68.2691 3.28197C69.117 3.22605 69.9435 3.91424 71.1793 5.201C71.3835 5.41319 71.3792 5.7537 71.1705 5.96123C70.9618 6.16876 70.6268 6.16482 70.4227 5.95227C69.648 5.1458 68.7944 4.32643 68.3364 4.35511C67.9567 4.37984 67.449 5.06408 66.7463 6.01105C66.6373 6.15765 66.5231 6.31178 66.4018 6.47343C66.2981 6.61178 66.1405 6.6849 65.9811 6.6849Z" fill="black"/>
<path d="M43.9349 9.93861C43.5484 10.0415 43.1705 10.1139 42.8077 10.22C42.4455 10.3221 42.0958 10.4318 41.7714 10.5669C41.1177 10.8311 40.5874 11.2024 40.2718 11.6716C39.9577 12.1397 39.8258 12.7494 39.8607 13.4476C39.8896 14.1437 40.067 14.8846 40.2644 15.6602L40.2666 15.6695C40.3166 15.8656 40.2003 16.0656 40.0078 16.1165C39.8699 16.1527 39.7303 16.1029 39.6435 16.0004C39.0928 15.3477 38.67 14.5581 38.4722 13.6448C38.376 13.1889 38.3414 12.6989 38.4144 12.1978C38.4885 11.6989 38.6697 11.1917 38.9648 10.7594C39.2606 10.3279 39.6499 9.97732 40.0677 9.72642C40.4859 9.47301 40.9298 9.31244 41.368 9.21279C42.2488 9.01888 43.1141 9.04397 43.9349 9.22211C44.1295 9.26441 44.2536 9.45903 44.212 9.65689C44.1827 9.79668 44.0787 9.90062 43.9515 9.93467L43.9349 9.93861Z" fill="black"/>
<path d="M26.002 30.4364C25.4435 29.4446 25.0588 28.2898 25.0853 27.0353C25.1004 26.413 25.2214 25.7689 25.4851 25.1689C25.7488 24.57 26.1518 24.0262 26.6419 23.5968C26.759 23.4821 26.8958 23.395 27.0241 23.2958C27.156 23.2029 27.2946 23.1219 27.4307 23.0373C27.7117 22.8868 28.0008 22.7552 28.297 22.6574C28.8904 22.4624 29.5014 22.3707 30.1008 22.3721C31.3007 22.3732 32.4522 22.7076 33.4374 23.2807C33.6084 23.3804 33.6679 23.6019 33.5699 23.7761C33.4931 23.9126 33.3422 23.9789 33.1979 23.9535L33.1898 23.952C32.1529 23.7646 31.1395 23.6764 30.1798 23.7983C29.2268 23.9201 28.3287 24.2434 27.6736 24.8205C27.3446 25.1058 27.0749 25.4485 26.8708 25.8392C26.6712 26.2324 26.539 26.674 26.4713 27.1446C26.4025 27.6152 26.3934 28.1127 26.4346 28.6213C26.4727 29.1314 26.5665 29.6464 26.6606 30.1776L26.6631 30.1923C26.698 30.3894 26.569 30.5776 26.3754 30.6131C26.222 30.6411 26.075 30.5654 26.002 30.4364Z" fill="black"/>
<path d="M60.833 17.0385C61.6426 16.8105 62.499 16.7797 63.3636 16.9514C63.4718 16.9686 63.579 16.998 63.6862 17.0313C63.7941 17.0614 63.9002 17.0976 64.0077 17.1317C64.2225 17.2012 64.4277 17.3123 64.6371 17.4087C64.7397 17.4632 64.8377 17.5299 64.9361 17.594C65.0331 17.6614 65.136 17.7191 65.2273 17.7958C65.3194 17.8722 65.4086 17.9525 65.4974 18.0328L65.6304 18.1535C65.673 18.1958 65.7104 18.2432 65.7502 18.2883C65.9075 18.4715 66.064 18.6561 66.1822 18.8654C66.2456 18.9675 66.3045 19.0722 66.3648 19.1754C66.4145 19.2833 66.4607 19.3919 66.5065 19.5012C66.5485 19.6116 66.5993 19.7195 66.6317 19.831C66.6627 19.9428 66.6927 20.0547 66.7195 20.1672C66.7435 20.2798 66.7812 20.3909 66.7928 20.5034L66.8306 20.8403C66.9106 21.7364 66.777 22.602 66.4558 23.3931C66.417 23.4891 66.3087 23.5346 66.2142 23.4952C66.1585 23.4719 66.1201 23.4242 66.106 23.3691L66.1042 23.3622C65.8997 22.5515 65.758 21.7941 65.5256 21.112C65.2972 20.4292 64.9922 19.8461 64.5775 19.3718C64.1675 18.8926 63.6146 18.5249 62.9666 18.222C62.3203 17.9109 61.5915 17.6833 60.8218 17.3973L60.8182 17.3962C60.7227 17.3607 60.6733 17.2528 60.7082 17.1557C60.7297 17.0965 60.778 17.0546 60.833 17.0385Z" fill="black"/>
<path d="M79.8958 32.9362C80.9321 32.5803 82.0156 32.3853 83.1453 32.3964C83.7094 32.4065 84.2873 32.4674 84.8677 32.6309C85.4459 32.7947 86.0326 33.0681 86.5456 33.4972C87.0498 33.9352 87.4518 34.5348 87.6397 35.1685C87.8315 35.8019 87.8654 36.4381 87.8029 37.0317C87.6746 38.2224 87.2476 39.2794 86.6613 40.222C86.608 40.3081 86.4959 40.3335 86.4116 40.2794C86.3535 40.2421 86.3235 40.1765 86.3277 40.1113L86.3281 40.1045C86.3654 39.555 86.4328 39.0277 86.4631 38.5069C86.4949 37.9883 86.5104 37.4815 86.4755 37.0012C86.4388 36.5216 86.357 36.0714 86.2001 35.6872C86.1634 35.5901 86.1148 35.5019 86.0732 35.4105C86.0178 35.3284 85.9776 35.2366 85.9138 35.1624C85.8105 34.9961 85.6642 34.8646 85.5224 34.7277C85.2185 34.47 84.8373 34.2635 84.4093 34.1001C83.9802 33.9388 83.5077 33.8216 83.0198 33.7269C82.0399 33.533 80.9991 33.4499 79.9304 33.2929L79.9279 33.2925C79.8288 33.2778 79.7604 33.1846 79.7745 33.0843C79.7848 33.0137 79.8334 32.9581 79.8958 32.9362Z" fill="black"/>
<path d="M46.8265 22.8777C46.7623 20.1321 50.7324 17.5773 53.6117 17.8927C54.2907 17.9669 54.8228 18.5318 54.8436 19.2257C54.8778 20.3816 54.7509 21.4254 54.3923 22.3085C53.9396 23.4232 52.9456 24.1928 51.7831 24.4337C50.5307 24.6932 49.2089 24.5795 47.8356 24.1903C47.252 24.0247 46.8406 23.4928 46.8265 22.8777Z" fill="black"/>
<path d="M53.193 19.4764C53.5209 20.0409 52.8062 20.6972 51.8035 21.299C50.8007 21.9008 49.8903 22.2205 49.5624 21.6556C49.2345 21.0911 49.9404 20.419 50.9428 19.8172C51.9452 19.2154 52.8651 18.9115 53.193 19.4764Z" fill="white"/>
<path d="M53.5802 22.8615L54.2166 24.6762L54.535 25.5834C54.5833 25.7232 54.6521 25.9103 54.6965 26.0942C54.7458 26.2773 54.7762 26.4648 54.8005 26.6529C54.8862 27.4074 54.7592 28.1885 54.4264 28.8763C54.345 29.0465 54.2452 29.2182 54.145 29.3681C54.0484 29.5132 53.9479 29.6555 53.8439 29.7946C53.6348 30.072 53.4078 30.3333 53.1698 30.5817C52.9314 30.8297 52.6786 31.0606 52.4181 31.2788C52.1487 31.4964 51.9033 31.6918 51.574 31.8918C51.2556 32.0796 50.9164 32.2301 50.5628 32.3341C50.2091 32.4369 49.8431 32.4882 49.4775 32.5025C48.7459 32.5183 48.0072 32.338 47.3912 31.9556C47.3151 31.9061 47.2389 31.8584 47.1649 31.8075L46.9523 31.6426C46.8183 31.5254 46.6878 31.3986 46.5725 31.272C46.3465 31.0097 46.1494 30.7283 46.0024 30.4218C45.9583 30.3304 45.9957 30.22 46.0859 30.1752C46.148 30.1444 46.2189 30.153 46.2714 30.1914L46.2739 30.1932C46.5299 30.381 46.7767 30.5602 47.0355 30.7097C47.0986 30.7502 47.1635 30.7824 47.2269 30.815C47.2918 30.8462 47.3507 30.8849 47.4184 30.9089L47.6102 30.9946L47.8073 31.0634C48.3323 31.2369 48.8742 31.2878 49.4034 31.2351C49.6682 31.2054 49.9263 31.1408 50.1788 31.062C50.4288 30.9742 50.6678 30.8595 50.8974 30.7272C51.1089 30.5946 51.3733 30.4089 51.5997 30.2286C51.8335 30.0473 52.0584 29.8566 52.2693 29.653C52.4801 29.4494 52.6793 29.2351 52.8599 29.0071C52.9505 28.8935 53.0383 28.7774 53.119 28.6569C53.1973 28.5419 53.2586 28.4372 53.3175 28.3193C53.5463 27.8551 53.6324 27.3185 53.5742 26.7967C53.5566 26.6669 53.5365 26.5365 53.5016 26.4099C53.4709 26.282 53.4282 26.1669 53.3722 26.0042L53.0541 25.097L52.4177 23.2823C52.3031 22.9561 52.4706 22.597 52.7918 22.4808C53.113 22.3647 53.466 22.5349 53.5802 22.8615Z" fill="black"/>
<path d="M54.5505 26.1667C55.0216 26.4814 55.5624 26.6771 56.1026 26.7054C56.3716 26.7197 56.6406 26.6939 56.8864 26.6129C57.1318 26.5312 57.3479 26.4033 57.5397 26.2595C57.7312 26.1144 57.9078 25.9495 58.0432 25.7369C58.1762 25.5255 58.2784 25.276 58.332 24.9982C58.3902 24.7208 58.4018 24.4186 58.3856 24.1064C58.3637 23.7935 58.308 23.4745 58.2446 23.1455L58.2432 23.1383C58.2241 23.0394 58.2876 22.9437 58.3849 22.9243C58.4568 22.91 58.5266 22.9415 58.5661 22.9985C58.9642 23.5738 59.2632 24.2681 59.2932 25.0624C59.3048 25.4559 59.2459 25.8735 59.0837 26.266C58.9286 26.6602 58.6687 27.0248 58.3373 27.2932C58.0069 27.5649 57.6166 27.738 57.2249 27.8402C56.831 27.9398 56.4319 27.9782 56.0395 27.9578C55.2532 27.9162 54.5047 27.6373 53.8697 27.2122C53.5851 27.0219 53.5061 26.6326 53.6934 26.3434C53.8809 26.0541 54.2635 25.9739 54.548 26.1642L54.5505 26.1667Z" fill="black"/>
<path d="M54.2674 51.208C53.1313 51.208 52.026 50.7707 51.1678 49.9678C50.1319 48.9982 49.5698 47.6226 49.6266 46.1928C49.7451 43.1945 49.6918 40.4092 49.463 37.7887C49.4563 37.7514 49.4531 37.7138 49.4531 37.6762C49.2765 35.6991 48.9993 33.8159 48.6203 32.0062C48.5494 31.6675 48.7621 31.3341 49.0956 31.2621C49.4288 31.1911 49.7567 31.4062 49.8276 31.7452C50.1629 33.3467 50.4203 35.0023 50.6008 36.7263C51.319 36.5991 52.082 36.884 52.6155 37.2041C54.8184 36.5209 55.8935 37.6174 56.4125 38.7002C58.7879 42.7028 59.4645 46.2301 58.3165 48.6337C57.6384 50.0538 56.3631 50.9793 54.8184 51.1732C54.6348 51.1965 54.4503 51.208 54.2674 51.208ZM50.7186 37.9919C50.9298 40.5741 50.9756 43.31 50.8596 46.243C50.8176 47.3036 51.2344 48.3251 52.0037 49.0445C52.7438 49.737 53.6888 50.052 54.6675 49.928C55.7891 49.7871 56.7147 49.1154 57.2065 48.0853C57.7633 46.9193 58.2615 44.2308 55.3413 39.3235C55.3311 39.3059 55.3212 39.288 55.3128 39.2694C54.9697 38.5403 54.3964 37.8772 52.7378 38.4837C52.5471 38.5536 52.3341 38.5235 52.1691 38.4031C52.161 38.3973 51.2852 37.7966 50.7186 37.9919Z" fill="black"/>
<path d="M55.8696 39.6263C55.5297 39.6263 55.2536 39.3471 55.2525 39.0012C55.2377 34.919 55.2233 31.063 57.702 26.1913C57.8585 25.8837 58.2308 25.7629 58.5334 25.9224C58.8362 26.0816 58.9547 26.4601 58.7978 26.7676C56.4584 31.3663 56.4711 34.9022 56.4862 38.9969C56.4873 39.3431 56.2123 39.6252 55.8713 39.6263C55.871 39.6263 55.8703 39.6263 55.8696 39.6263Z" fill="black"/>
<path d="M53.0431 37.5473C53.1605 37.7674 53.2448 37.9573 53.3351 38.1624C53.4218 38.3645 53.5032 38.5674 53.5794 38.7717C53.7324 39.1799 53.8647 39.5939 53.9761 40.0126C54.0892 40.4305 54.1816 40.8531 54.2486 41.2789C54.3227 41.7029 54.3583 42.1331 54.3844 42.5596C54.3907 42.6585 54.3167 42.7438 54.2194 42.7499C54.1326 42.7557 54.0568 42.6965 54.0367 42.6137L54.035 42.6065C53.9376 42.2047 53.8336 41.808 53.6933 41.4227C53.5604 41.0359 53.4045 40.6585 53.2314 40.2907C53.06 39.9226 52.8711 39.5638 52.6659 39.2176C52.5632 39.0445 52.4571 38.8742 52.3478 38.7083C52.2396 38.5462 52.1197 38.3724 52.0143 38.2398C51.7988 37.9692 51.8401 37.5724 52.1063 37.3537C52.3721 37.1347 52.7625 37.1767 52.9779 37.4469C53.0015 37.4767 53.022 37.5079 53.0396 37.5401L53.0431 37.5473Z" fill="black"/>
<path d="M69.41 27.1675C70.9476 27.0489 73.836 29.6335 73.9129 31.1981C73.9312 31.5715 73.6184 31.8766 73.2507 31.8762L70.832 31.8758C69.9829 31.8758 69.2654 31.2364 69.1536 30.3812L68.8328 27.9245C68.7841 27.5525 69.0422 27.1958 69.41 27.1675Z" fill="black"/>
<path d="M72.174 30.129C72.0329 30.2978 71.5305 30.0989 71.0517 29.6849C70.5732 29.2709 70.2996 28.7988 70.4406 28.63C70.5817 28.4612 71.0122 28.7461 71.491 29.1598C71.9698 29.5738 72.315 29.9601 72.174 30.129Z" fill="white"/>
<path d="M70.292 31.6192L69.5837 32.5418L69.2293 33.0031C69.1673 33.0827 69.1218 33.1486 69.0322 33.2501C68.9526 33.3447 68.8711 33.4379 68.777 33.5185C68.4138 33.8533 67.966 34.0942 67.489 34.2013C67.0116 34.3089 66.5074 34.2913 66.0321 34.1468C65.5586 34.0045 65.1034 33.7303 64.7765 33.3404C64.4447 32.9597 64.2621 32.4551 64.2275 31.9572C64.1909 31.4583 64.3097 30.9712 64.5212 30.574C64.7346 30.1744 65.0209 29.8471 65.3505 29.5977C65.4309 29.5367 65.5445 29.5536 65.6044 29.6353C65.6453 29.6912 65.6502 29.7629 65.6238 29.822L65.622 29.8256C65.463 30.1769 65.3407 30.5231 65.2899 30.8568C65.2324 31.1887 65.2564 31.5034 65.3424 31.7744C65.3809 31.9117 65.4464 32.0364 65.518 32.1529C65.5896 32.2683 65.6686 32.3837 65.7595 32.4812C65.9316 32.6816 66.1368 32.8633 66.3995 32.9457C66.6586 33.0282 66.9453 33.0364 67.2175 32.9769C67.4904 32.9164 67.7425 32.7776 67.947 32.5895C68.1205 32.4346 68.3786 32.0626 68.6109 31.769L69.3193 30.8464C69.5287 30.5733 69.9165 30.5249 70.1852 30.7378C70.4539 30.9507 70.5018 31.3461 70.292 31.6192Z" fill="black"/>
<path d="M69.7696 32.2968C69.6225 32.4567 69.5404 32.5696 69.4431 32.6957L69.3218 32.8972C69.2844 32.966 69.2572 33.0398 69.223 33.1104C69.1053 33.4011 69.0453 33.7165 69.0485 34.033C69.0499 34.6657 69.3228 35.2997 69.7974 35.6793C70.0333 35.8668 70.3097 36.0073 70.5995 36.0854C70.8866 36.1678 71.1764 36.2019 71.4771 36.1808C71.7779 36.1582 72.0864 36.0671 72.4034 35.9252C72.72 35.7804 73.0299 35.5707 73.3575 35.3374L73.3617 35.3345C73.4449 35.275 73.5599 35.2958 73.6181 35.3804C73.6537 35.432 73.6597 35.4965 73.6403 35.5517C73.4939 35.9596 73.2566 36.342 72.9298 36.6646C72.6065 36.9894 72.1851 37.2499 71.7102 37.3826C71.4729 37.4485 71.2247 37.479 70.9758 37.4811C70.7286 37.4736 70.4786 37.4467 70.2434 37.3736C69.7696 37.2446 69.3408 36.9783 68.9769 36.6492C68.6152 36.3166 68.3201 35.913 68.1205 35.4671C67.9178 35.0219 67.8212 34.5348 67.8145 34.0499C67.8088 33.5642 67.9005 33.0771 68.0842 32.6262C68.135 32.5158 68.1804 32.4022 68.2386 32.2957L68.4269 31.9839C68.5676 31.7904 68.7308 31.5878 68.8542 31.4552L68.8712 31.4369C69.1053 31.1853 69.4956 31.1742 69.7431 31.4122C69.991 31.6506 70.004 32.0452 69.7696 32.2968Z" fill="black"/>
<path d="M65.9345 41.2162C65.1581 41.2162 64.3994 40.9438 63.7887 40.4259C62.922 39.6904 62.482 38.5663 62.6117 37.4186C62.7306 36.3681 63.1152 35.3229 63.5225 34.2164C63.7887 33.4938 64.0637 32.7461 64.2555 32.0031C64.3422 31.668 64.68 31.4673 65.009 31.5554C65.3386 31.6436 65.5357 31.9863 65.4494 32.3214C65.2417 33.1264 64.9554 33.9042 64.6782 34.6562C64.2982 35.6885 63.9392 36.6638 63.8377 37.5616C63.7541 38.2993 64.0245 38.9918 64.5792 39.4624C65.1373 39.9355 65.8598 40.0828 66.5646 39.866C67.9859 39.4283 69.4851 38.1122 71.4483 36.3003C71.7004 36.0677 72.0907 36.0867 72.3199 36.3433C72.5487 36.6 72.53 36.9964 72.2776 37.2294C70.1941 39.152 68.5902 40.5527 66.9225 41.0667C66.5967 41.1667 66.2638 41.2162 65.9345 41.2162Z" fill="black"/>
<path d="M67.7481 40.576C67.7228 40.576 67.697 40.5742 67.6713 40.5703C67.3822 40.5273 67.1822 40.2545 67.2242 39.9606C67.3607 39.009 67.0289 38.1183 66.3142 37.5165C65.5625 36.8835 64.5392 36.7064 63.5774 37.0433C63.301 37.1405 63.0002 36.991 62.905 36.7104C62.8098 36.4297 62.9565 36.1236 63.2326 36.0268C64.5459 35.5663 65.9503 35.8139 66.9887 36.6885C67.9794 37.5229 68.4586 38.8039 68.2707 40.1158C68.2323 40.3835 68.0062 40.576 67.7481 40.576Z" fill="black"/>
<path d="M50.5671 58.8973L50.5459 59.1608C50.5459 59.1608 48.5221 56.7378 45.1284 58.7647C45.2888 58.6357 45.4581 58.5156 45.6326 58.4081C46.2726 58.012 46.9989 57.7522 47.7446 57.7092C48.4886 57.6626 49.2431 57.8669 49.8619 58.288C50.121 58.4601 50.3555 58.6679 50.5671 58.8973Z" fill="#000072"/>
<path d="M73.561 60.3222C73.2807 60.3616 73.0003 60.401 72.7183 60.4369C72.9845 60.3849 73.2542 60.3275 73.5239 60.2666C73.5239 60.2666 73.5381 60.2863 73.561 60.3222Z" fill="#807BB7"/>
<g opacity="0.3">
<path opacity="0.3" d="M63.9972 72.1128C61.9028 73.1092 59.8084 73.9605 57.7141 74.6594C54.9674 73.154 53.0899 71.2937 52.6527 70.8403C52.5874 70.7722 52.554 70.7364 52.554 70.7364L52.5822 70.2597L52.6827 68.5625L52.7126 68.0625C54.4068 70.5858 58.079 71.5429 60.8239 71.9013C60.8362 71.9013 60.8468 71.9031 60.8574 71.9049C62.3189 72.093 63.5124 72.1128 63.9972 72.1128Z" fill="#000072"/>
</g>
</g>
<defs>
<clipPath id="clip0_201_5717">
<rect width="102" height="77" fill="white"/>
</clipPath>
</defs>
</svg>
